<svg width="1672" height="279" viewBox="0 0 1672 279" fill="none" xmlns="http://www.w3.org/2000/svg">
<g filter="url(#filter0_d_119_18)">
<mask id="path-1-outside-1_119_18" maskUnits="userSpaceOnUse" x="0" y="-0.5" width="1672" height="265" fill="black">
<rect fill="white" y="-0.5" width="1672" height="265"/>
<path d="M25 194.5V32H130V68H68V93.5H121V129.5H68V158.5H132.5V194.5H25ZM214.475 197.5C202.641 197.5 191.975 194.917 182.475 189.75C172.975 184.583 165.391 177.167 159.725 167.5C154.225 157.667 151.475 145.833 151.475 132C151.475 118.167 154.558 106.417 160.725 96.75C167.058 86.9167 175.308 79.4167 185.475 74.25C195.641 69.0833 206.641 66.5 218.475 66.5C225.975 66.5 232.725 67.6667 238.725 70C244.891 72.3333 250.308 75.5 254.975 79.5L234.975 107C232.308 104.667 229.891 103.083 227.725 102.25C225.558 101.417 223.308 101 220.975 101C212.975 101 206.725 103.833 202.225 109.5C197.725 115 195.475 122.5 195.475 132C195.475 141.5 197.808 149.083 202.475 154.75C207.141 160.25 212.808 163 219.475 163C222.975 163 226.391 162.25 229.725 160.75C233.225 159.083 236.475 157.167 239.475 155L255.975 183C249.808 188.5 242.975 192.333 235.475 194.5C227.975 196.5 220.975 197.5 214.475 197.5ZM323.826 197.5C313.16 197.5 303.076 194.917 293.576 189.75C284.243 184.583 276.576 177.167 270.576 167.5C264.743 157.667 261.826 145.833 261.826 132C261.826 118.167 264.743 106.417 270.576 96.75C276.576 86.9167 284.243 79.4167 293.576 74.25C303.076 69.0833 313.16 66.5 323.826 66.5C334.493 66.5 344.493 69.0833 353.826 74.25C363.326 79.4167 370.993 86.9167 376.826 96.75C382.826 106.417 385.826 118.167 385.826 132C385.826 145.833 382.826 157.667 376.826 167.5C370.993 177.167 363.326 184.583 353.826 189.75C344.493 194.917 334.493 197.5 323.826 197.5ZM323.826 163C330.326 163 334.91 160.25 337.576 154.75C340.41 149.083 341.826 141.5 341.826 132C341.826 122.5 340.41 115 337.576 109.5C334.91 103.833 330.326 101 323.826 101C317.326 101 312.66 103.833 309.826 109.5C307.16 115 305.826 122.5 305.826 132C305.826 141.5 307.16 149.083 309.826 154.75C312.66 160.25 317.326 163 323.826 163ZM408.219 194.5V69.5H443.219L446.219 84.5H447.219C452.219 79.6667 457.885 75.5 464.219 72C470.719 68.3333 478.219 66.5 486.719 66.5C500.552 66.5 510.469 71.1667 516.469 80.5C522.635 89.6667 525.719 102 525.719 117.5V194.5H482.719V123C482.719 115 481.719 109.667 479.719 107C477.719 104.333 474.552 103 470.219 103C466.219 103 462.885 103.833 460.219 105.5C457.552 107.167 454.552 109.5 451.219 112.5V194.5H408.219ZM599.227 115.5L596.477 126.75H626.477L623.727 115.5C621.727 107.667 619.727 99.1667 617.727 90C615.727 80.8333 613.727 72.1667 611.727 64H610.727C609.06 72.1667 607.227 80.8333 605.227 90C603.227 99.1667 601.227 107.667 599.227 115.5ZM536.727 194.5L586.227 32H638.227L687.727 194.5H642.227L634.227 160H588.727L580.727 194.5H536.727ZM703.223 194.5V32H746.223V194.5H703.223ZM873.824 239C861.158 239 848.991 237.083 837.324 233.25C825.658 229.417 815.241 223.583 806.074 215.75C796.908 207.917 789.658 198 784.324 186C778.991 173.833 776.324 159.5 776.324 143C776.324 125.167 779.324 109.083 785.324 94.75C791.491 80.25 799.908 67.8333 810.574 57.5C821.241 47 833.574 39 847.574 33.5C861.574 27.8333 876.491 25 892.324 25C910.824 25 926.908 28.9167 940.574 36.75C954.241 44.5833 964.741 55.4167 972.074 69.25C979.574 82.9167 983.324 98.6667 983.324 116.5C983.324 128.167 981.491 138.333 977.824 147C974.324 155.667 969.658 162.917 963.824 168.75C957.991 174.417 951.574 178.75 944.574 181.75C937.574 184.583 930.658 186 923.824 186C916.491 186 909.991 184.333 904.324 181C898.824 177.667 895.324 173 893.824 167H893.324C890.158 172 885.574 176 879.574 179C873.741 182 868.324 183.5 863.324 183.5C853.158 183.5 844.908 180 838.574 173C832.408 165.833 829.324 156.5 829.324 145C829.324 137 830.658 129.25 833.324 121.75C835.991 114.25 839.658 107.583 844.324 101.75C849.158 95.9167 854.658 91.25 860.824 87.75C866.991 84.25 873.658 82.5 880.824 82.5C884.824 82.5 888.408 83.5 891.574 85.5C894.741 87.3333 897.324 90.5 899.324 95H899.824L903.824 84.5H929.824L917.824 141.5C914.824 153.833 918.324 160 928.324 160C933.324 160 937.991 158.25 942.324 154.75C946.658 151.25 950.158 146.333 952.824 140C955.491 133.5 956.824 126 956.824 117.5C956.824 109 955.574 100.75 953.074 92.75C950.741 84.75 946.908 77.5833 941.574 71.25C936.408 64.9167 929.491 59.9167 920.824 56.25C912.158 52.4167 901.491 50.5 888.824 50.5C878.324 50.5 868.074 52.6667 858.074 57C848.074 61.3333 839.074 67.5 831.074 75.5C823.074 83.5 816.658 93.1667 811.824 104.5C807.158 115.667 804.824 128.167 804.824 142C804.824 154.333 806.824 165 810.824 174C814.824 183 820.241 190.417 827.074 196.25C833.908 202.083 841.658 206.417 850.324 209.25C858.991 212.083 867.991 213.5 877.324 213.5C883.324 213.5 889.741 212.583 896.574 210.75C903.408 209.083 909.324 207 914.324 204.5L923.324 227.5C915.658 231.5 907.741 234.417 899.574 236.25C891.408 238.083 882.824 239 873.824 239ZM872.824 157C875.158 157 877.408 156.25 879.574 154.75C881.741 153.25 884.158 150.667 886.824 147L892.324 115.5C890.324 111.5 886.991 109.5 882.324 109.5C877.991 109.5 874.241 111.333 871.074 115C867.908 118.5 865.491 122.833 863.824 128C862.158 133.167 861.324 138 861.324 142.5C861.324 152.167 865.158 157 872.824 157ZM1013.28 194.5V32H1056.28V92.5H1057.28L1098.28 32H1145.28L1096.78 98L1154.78 194.5H1107.78L1071.78 132L1056.28 154V194.5H1013.28ZM1209.82 115.5L1207.07 126.75H1237.07L1234.32 115.5C1232.32 107.667 1230.32 99.1667 1228.32 90C1226.32 80.8333 1224.32 72.1667 1222.32 64H1221.32C1219.66 72.1667 1217.82 80.8333 1215.82 90C1213.82 99.1667 1211.82 107.667 1209.82 115.5ZM1147.32 194.5L1196.82 32H1248.82L1298.32 194.5H1252.82L1244.82 160H1199.32L1191.32 194.5H1147.32ZM1313.82 194.5V32H1356.82V194.5H1313.82ZM1444.42 197.5C1434.25 197.5 1423.67 195.583 1412.67 191.75C1401.67 187.917 1391.75 182.083 1382.92 174.25L1407.42 144.75C1413.25 149.417 1419.5 153.25 1426.17 156.25C1433 159.083 1439.42 160.5 1445.42 160.5C1451.92 160.5 1456.59 159.5 1459.42 157.5C1462.42 155.5 1463.92 152.667 1463.92 149C1463.92 145.167 1461.92 142.25 1457.92 140.25C1454.09 138.25 1448.75 135.917 1441.92 133.25L1421.67 124.75C1413 121.25 1405.34 115.75 1398.67 108.25C1392.17 100.75 1388.92 91.1667 1388.92 79.5C1388.92 70.1667 1391.5 61.75 1396.67 54.25C1401.84 46.5833 1408.92 40.5 1417.92 36C1427.09 31.3333 1437.59 29 1449.42 29C1458.75 29 1468.17 30.8333 1477.67 34.5C1487.34 38 1495.92 43.4167 1503.42 50.75L1481.92 77.75C1476.42 73.9167 1471.09 71 1465.92 69C1460.92 67 1455.42 66 1449.42 66C1444.25 66 1440.09 66.9167 1436.92 68.75C1433.92 70.5833 1432.42 73.3333 1432.42 77C1432.42 80.8333 1434.59 83.8333 1438.92 86C1443.25 88 1449.09 90.4167 1456.42 93.25L1476.17 101C1486.34 105 1494.17 110.583 1499.67 117.75C1505.17 124.917 1507.92 134.167 1507.92 145.5C1507.92 154.667 1505.42 163.25 1500.42 171.25C1495.59 179.083 1488.42 185.417 1478.92 190.25C1469.42 195.083 1457.92 197.5 1444.42 197.5ZM1560.15 194.5V68H1517.15V32H1646.15V68H1603.15V194.5H1560.15Z"/>
</mask>
<path d="M25 194.5V32H130V68H68V93.5H121V129.5H68V158.5H132.5V194.5H25ZM214.475 197.5C202.641 197.5 191.975 194.917 182.475 189.75C172.975 184.583 165.391 177.167 159.725 167.5C154.225 157.667 151.475 145.833 151.475 132C151.475 118.167 154.558 106.417 160.725 96.75C167.058 86.9167 175.308 79.4167 185.475 74.25C195.641 69.0833 206.641 66.5 218.475 66.5C225.975 66.5 232.725 67.6667 238.725 70C244.891 72.3333 250.308 75.5 254.975 79.5L234.975 107C232.308 104.667 229.891 103.083 227.725 102.25C225.558 101.417 223.308 101 220.975 101C212.975 101 206.725 103.833 202.225 109.5C197.725 115 195.475 122.5 195.475 132C195.475 141.5 197.808 149.083 202.475 154.75C207.141 160.25 212.808 163 219.475 163C222.975 163 226.391 162.25 229.725 160.75C233.225 159.083 236.475 157.167 239.475 155L255.975 183C249.808 188.5 242.975 192.333 235.475 194.5C227.975 196.5 220.975 197.5 214.475 197.5ZM323.826 197.5C313.16 197.5 303.076 194.917 293.576 189.75C284.243 184.583 276.576 177.167 270.576 167.5C264.743 157.667 261.826 145.833 261.826 132C261.826 118.167 264.743 106.417 270.576 96.75C276.576 86.9167 284.243 79.4167 293.576 74.25C303.076 69.0833 313.16 66.5 323.826 66.5C334.493 66.5 344.493 69.0833 353.826 74.25C363.326 79.4167 370.993 86.9167 376.826 96.75C382.826 106.417 385.826 118.167 385.826 132C385.826 145.833 382.826 157.667 376.826 167.5C370.993 177.167 363.326 184.583 353.826 189.75C344.493 194.917 334.493 197.5 323.826 197.5ZM323.826 163C330.326 163 334.91 160.25 337.576 154.75C340.41 149.083 341.826 141.5 341.826 132C341.826 122.5 340.41 115 337.576 109.5C334.91 103.833 330.326 101 323.826 101C317.326 101 312.66 103.833 309.826 109.5C307.16 115 305.826 122.5 305.826 132C305.826 141.5 307.16 149.083 309.826 154.75C312.66 160.25 317.326 163 323.826 163ZM408.219 194.5V69.5H443.219L446.219 84.5H447.219C452.219 79.6667 457.885 75.5 464.219 72C470.719 68.3333 478.219 66.5 486.719 66.5C500.552 66.5 510.469 71.1667 516.469 80.5C522.635 89.6667 525.719 102 525.719 117.5V194.5H482.719V123C482.719 115 481.719 109.667 479.719 107C477.719 104.333 474.552 103 470.219 103C466.219 103 462.885 103.833 460.219 105.5C457.552 107.167 454.552 109.5 451.219 112.5V194.5H408.219ZM599.227 115.5L596.477 126.75H626.477L623.727 115.5C621.727 107.667 619.727 99.1667 617.727 90C615.727 80.8333 613.727 72.1667 611.727 64H610.727C609.06 72.1667 607.227 80.8333 605.227 90C603.227 99.1667 601.227 107.667 599.227 115.5ZM536.727 194.5L586.227 32H638.227L687.727 194.5H642.227L634.227 160H588.727L580.727 194.5H536.727ZM703.223 194.5V32H746.223V194.5H703.223ZM873.824 239C861.158 239 848.991 237.083 837.324 233.25C825.658 229.417 815.241 223.583 806.074 215.75C796.908 207.917 789.658 198 784.324 186C778.991 173.833 776.324 159.5 776.324 143C776.324 125.167 779.324 109.083 785.324 94.75C791.491 80.25 799.908 67.8333 810.574 57.5C821.241 47 833.574 39 847.574 33.5C861.574 27.8333 876.491 25 892.324 25C910.824 25 926.908 28.9167 940.574 36.75C954.241 44.5833 964.741 55.4167 972.074 69.25C979.574 82.9167 983.324 98.6667 983.324 116.5C983.324 128.167 981.491 138.333 977.824 147C974.324 155.667 969.658 162.917 963.824 168.75C957.991 174.417 951.574 178.75 944.574 181.75C937.574 184.583 930.658 186 923.824 186C916.491 186 909.991 184.333 904.324 181C898.824 177.667 895.324 173 893.824 167H893.324C890.158 172 885.574 176 879.574 179C873.741 182 868.324 183.5 863.324 183.5C853.158 183.5 844.908 180 838.574 173C832.408 165.833 829.324 156.5 829.324 145C829.324 137 830.658 129.25 833.324 121.75C835.991 114.25 839.658 107.583 844.324 101.75C849.158 95.9167 854.658 91.25 860.824 87.75C866.991 84.25 873.658 82.5 880.824 82.5C884.824 82.5 888.408 83.5 891.574 85.5C894.741 87.3333 897.324 90.5 899.324 95H899.824L903.824 84.5H929.824L917.824 141.5C914.824 153.833 918.324 160 928.324 160C933.324 160 937.991 158.25 942.324 154.75C946.658 151.25 950.158 146.333 952.824 140C955.491 133.5 956.824 126 956.824 117.5C956.824 109 955.574 100.75 953.074 92.75C950.741 84.75 946.908 77.5833 941.574 71.25C936.408 64.9167 929.491 59.9167 920.824 56.25C912.158 52.4167 901.491 50.5 888.824 50.5C878.324 50.5 868.074 52.6667 858.074 57C848.074 61.3333 839.074 67.5 831.074 75.5C823.074 83.5 816.658 93.1667 811.824 104.5C807.158 115.667 804.824 128.167 804.824 142C804.824 154.333 806.824 165 810.824 174C814.824 183 820.241 190.417 827.074 196.25C833.908 202.083 841.658 206.417 850.324 209.25C858.991 212.083 867.991 213.5 877.324 213.5C883.324 213.5 889.741 212.583 896.574 210.75C903.408 209.083 909.324 207 914.324 204.5L923.324 227.5C915.658 231.5 907.741 234.417 899.574 236.25C891.408 238.083 882.824 239 873.824 239ZM872.824 157C875.158 157 877.408 156.25 879.574 154.75C881.741 153.25 884.158 150.667 886.824 147L892.324 115.5C890.324 111.5 886.991 109.5 882.324 109.5C877.991 109.5 874.241 111.333 871.074 115C867.908 118.5 865.491 122.833 863.824 128C862.158 133.167 861.324 138 861.324 142.5C861.324 152.167 865.158 157 872.824 157ZM1013.28 194.5V32H1056.28V92.5H1057.28L1098.28 32H1145.28L1096.78 98L1154.78 194.5H1107.78L1071.78 132L1056.28 154V194.5H1013.28ZM1209.82 115.5L1207.07 126.75H1237.07L1234.32 115.5C1232.32 107.667 1230.32 99.1667 1228.32 90C1226.32 80.8333 1224.32 72.1667 1222.32 64H1221.32C1219.66 72.1667 1217.82 80.8333 1215.82 90C1213.82 99.1667 1211.82 107.667 1209.82 115.5ZM1147.32 194.5L1196.82 32H1248.82L1298.32 194.5H1252.82L1244.82 160H1199.32L1191.32 194.5H1147.32ZM1313.82 194.5V32H1356.82V194.5H1313.82ZM1444.42 197.5C1434.25 197.5 1423.67 195.583 1412.67 191.75C1401.67 187.917 1391.75 182.083 1382.92 174.25L1407.42 144.75C1413.25 149.417 1419.5 153.25 1426.17 156.25C1433 159.083 1439.42 160.5 1445.42 160.5C1451.92 160.5 1456.59 159.5 1459.42 157.5C1462.42 155.5 1463.92 152.667 1463.92 149C1463.92 145.167 1461.92 142.25 1457.92 140.25C1454.09 138.25 1448.75 135.917 1441.92 133.25L1421.67 124.75C1413 121.25 1405.34 115.75 1398.67 108.25C1392.17 100.75 1388.92 91.1667 1388.92 79.5C1388.92 70.1667 1391.5 61.75 1396.67 54.25C1401.84 46.5833 1408.92 40.5 1417.92 36C1427.09 31.3333 1437.59 29 1449.42 29C1458.75 29 1468.17 30.8333 1477.67 34.5C1487.34 38 1495.92 43.4167 1503.42 50.75L1481.92 77.75C1476.42 73.9167 1471.09 71 1465.92 69C1460.92 67 1455.42 66 1449.42 66C1444.25 66 1440.09 66.9167 1436.92 68.75C1433.92 70.5833 1432.42 73.3333 1432.42 77C1432.42 80.8333 1434.59 83.8333 1438.92 86C1443.25 88 1449.09 90.4167 1456.42 93.25L1476.17 101C1486.34 105 1494.17 110.583 1499.67 117.75C1505.17 124.917 1507.92 134.167 1507.92 145.5C1507.92 154.667 1505.42 163.25 1500.42 171.25C1495.59 179.083 1488.42 185.417 1478.92 190.25C1469.42 195.083 1457.92 197.5 1444.42 197.5ZM1560.15 194.5V68H1517.15V32H1646.15V68H1603.15V194.5H1560.15Z" fill="#004191"/>
<path d="M25 194.5H9.53674e-07V219.5H25V194.5ZM25 32V6.99998H9.53674e-07V32H25ZM130 32H155V6.99998H130V32ZM130 68V93H155V68H130ZM68 68V43H43V68H68ZM68 93.5H43V118.5H68V93.5ZM121 93.5H146V68.5H121V93.5ZM121 129.5V154.5H146V129.5H121ZM68 129.5V104.5H43V129.5H68ZM68 158.5H43V183.5H68V158.5ZM132.5 158.5H157.5V133.5H132.5V158.5ZM132.5 194.5V219.5H157.5V194.5H132.5ZM25 194.5H50V32H25H9.53674e-07V194.5H25ZM25 32V57H130V32V6.99998H25V32ZM130 32H105V68H130H155V32H130ZM130 68V43H68V68V93H130V68ZM68 68H43V93.5H68H93V68H68ZM68 93.5V118.5H121V93.5V68.5H68V93.5ZM121 93.5H96V129.5H121H146V93.5H121ZM121 129.5V104.5H68V129.5V154.5H121V129.5ZM68 129.5H43V158.5H68H93V129.5H68ZM68 158.5V183.5H132.5V158.5V133.5H68V158.5ZM132.5 158.5H107.5V194.5H132.5H157.5V158.5H132.5ZM132.5 194.5V169.5H25V194.5V219.5H132.5V194.5ZM182.475 189.75L170.53 211.712H170.53L182.475 189.75ZM159.725 167.5L137.906 179.704L138.029 179.925L138.157 180.143L159.725 167.5ZM160.725 96.75L139.707 83.213L139.677 83.2588L139.648 83.3046L160.725 96.75ZM185.475 74.25L174.148 51.9629H174.148L185.475 74.25ZM238.725 70L229.663 93.3001L229.77 93.3416L229.877 93.3821L238.725 70ZM254.975 79.5L275.193 94.2043L288.768 75.5388L271.244 60.5186L254.975 79.5ZM234.975 107L218.512 125.814L239.101 143.83L255.193 121.704L234.975 107ZM202.225 109.5L221.574 125.331L221.689 125.19L221.802 125.047L202.225 109.5ZM202.475 154.75L183.176 170.643L183.293 170.784L183.412 170.924L202.475 154.75ZM229.725 160.75L239.984 183.548L240.23 183.437L240.473 183.322L229.725 160.75ZM239.475 155L261.013 142.308L247.082 118.667L224.837 134.733L239.475 155ZM255.975 183L272.615 201.657L287.935 187.994L277.513 170.308L255.975 183ZM235.475 194.5L241.916 218.656L242.165 218.589L242.413 218.518L235.475 194.5ZM214.475 197.5V172.5C206.411 172.5 199.915 170.777 194.419 167.788L182.475 189.75L170.53 211.712C184.034 219.056 198.871 222.5 214.475 222.5V197.5ZM182.475 189.75L194.419 167.788C189.063 164.875 184.746 160.748 181.292 154.857L159.725 167.5L138.157 180.143C146.037 193.585 156.886 204.291 170.53 211.712L182.475 189.75ZM159.725 167.5L181.544 155.296C178.555 149.952 176.475 142.525 176.475 132H151.475H126.475C126.475 149.142 129.895 165.381 137.906 179.704L159.725 167.5ZM151.475 132H176.475C176.475 121.939 178.683 115.084 181.801 110.195L160.725 96.75L139.648 83.3046C130.433 97.7493 126.475 114.395 126.475 132H151.475ZM160.725 96.75L181.742 110.287C185.742 104.077 190.688 99.6439 196.801 96.5371L185.475 74.25L174.148 51.9629C159.928 59.1894 148.374 69.7559 139.707 83.213L160.725 96.75ZM185.475 74.25L196.801 96.5371C203.324 93.2219 210.425 91.5 218.475 91.5V66.5V41.5C202.858 41.5 187.958 44.9448 174.148 51.9629L185.475 74.25ZM218.475 66.5V91.5C223.378 91.5 226.987 92.2593 229.663 93.3001L238.725 70L247.786 46.6999C238.462 43.0741 228.571 41.5 218.475 41.5V66.5ZM238.725 70L229.877 93.3821C233.531 94.7648 236.394 96.5005 238.705 98.4814L254.975 79.5L271.244 60.5186C264.222 54.4995 256.251 49.9019 247.572 46.6178L238.725 70ZM254.975 79.5L234.756 64.7957L214.756 92.2957L234.975 107L255.193 121.704L275.193 94.2043L254.975 79.5ZM234.975 107L251.437 88.1856C247.6 84.8281 242.655 81.2071 236.699 78.9164L227.725 102.25L218.75 125.584C218.275 125.401 217.936 125.235 217.736 125.13C217.536 125.024 217.444 124.963 217.461 124.974C217.478 124.985 217.578 125.052 217.763 125.194C217.947 125.336 218.197 125.538 218.512 125.814L234.975 107ZM227.725 102.25L236.699 78.9164C231.653 76.9757 226.36 76 220.975 76V101V126C220.256 126 219.462 125.858 218.75 125.584L227.725 102.25ZM220.975 101V76C206.267 76 192.433 81.6302 182.647 93.9529L202.225 109.5L221.802 125.047C221.803 125.046 221.773 125.084 221.709 125.148C221.644 125.213 221.553 125.298 221.434 125.392C221.182 125.591 220.894 125.766 220.609 125.895C220.33 126.021 220.164 126.054 220.178 126.051C220.202 126.047 220.449 126 220.975 126V101ZM202.225 109.5L182.876 93.6691C173.652 104.942 170.475 118.679 170.475 132H195.475H220.475C220.475 129.184 220.812 127.419 221.108 126.434C221.252 125.954 221.383 125.666 221.459 125.52C221.498 125.446 221.527 125.399 221.544 125.373C221.561 125.347 221.571 125.335 221.574 125.331L202.225 109.5ZM195.475 132H170.475C170.475 145.567 173.855 159.324 183.176 170.643L202.475 154.75L221.773 138.857C221.76 138.842 220.475 137.433 220.475 132H195.475ZM202.475 154.75L183.412 170.924C192.387 181.502 204.81 188 219.475 188V163V138C219.538 138 219.763 138.008 220.103 138.084C220.448 138.161 220.806 138.284 221.14 138.446C221.854 138.793 221.948 139.06 221.537 138.576L202.475 154.75ZM219.475 163V188C226.669 188 233.571 186.434 239.984 183.548L229.725 160.75L219.465 137.952C219.38 137.991 219.326 138.01 219.303 138.017C219.281 138.025 219.281 138.023 219.302 138.019C219.312 138.017 219.324 138.014 219.34 138.012C219.355 138.009 219.372 138.007 219.389 138.005C219.406 138.003 219.423 138.002 219.438 138.001C219.453 138 219.465 138 219.475 138V163ZM229.725 160.75L240.473 183.322C245.272 181.036 249.831 178.359 254.112 175.267L239.475 155L224.837 134.733C223.118 135.975 221.177 137.13 218.976 138.178L229.725 160.75ZM239.475 155L217.936 167.692L234.436 195.692L255.975 183L277.513 170.308L261.013 142.308L239.475 155ZM255.975 183L239.334 164.343C235.793 167.501 232.233 169.414 228.536 170.482L235.475 194.5L242.413 218.518C253.716 215.252 263.823 209.499 272.615 201.657L255.975 183ZM235.475 194.5L229.033 170.344C223.241 171.889 218.427 172.5 214.475 172.5V197.5V222.5C223.522 222.5 232.708 221.111 241.916 218.656L235.475 194.5ZM293.576 189.75L281.468 211.622L281.55 211.668L281.632 211.712L293.576 189.75ZM270.576 167.5L249.075 180.255L249.203 180.471L249.335 180.684L270.576 167.5ZM270.576 96.75L249.235 83.7284L249.203 83.7808L249.171 83.8334L270.576 96.75ZM293.576 74.25L281.632 52.2879L281.55 52.3325L281.468 52.3777L293.576 74.25ZM353.826 74.25L341.718 96.1223L341.8 96.1675L341.882 96.2121L353.826 74.25ZM376.826 96.75L355.325 109.505L355.453 109.721L355.585 109.934L376.826 96.75ZM376.826 167.5L355.485 154.478L355.453 154.531L355.421 154.583L376.826 167.5ZM353.826 189.75L341.882 167.788L341.8 167.832L341.718 167.878L353.826 189.75ZM337.576 154.75L315.216 143.57L315.147 143.706L315.081 143.843L337.576 154.75ZM337.576 109.5L314.956 120.145L315.147 120.55L315.352 120.949L337.576 109.5ZM309.826 109.5L287.465 98.3197L287.397 98.456L287.331 98.5932L309.826 109.5ZM309.826 154.75L287.206 165.395L287.397 165.8L287.602 166.199L309.826 154.75ZM323.826 197.5V172.5C317.392 172.5 311.408 170.99 305.52 167.788L293.576 189.75L281.632 211.712C294.744 218.844 308.927 222.5 323.826 222.5V197.5ZM293.576 189.75L305.684 167.878C300.336 164.917 295.72 160.603 291.817 154.316L270.576 167.5L249.335 180.684C257.433 193.73 268.15 204.25 281.468 211.622L293.576 189.75ZM270.576 167.5L292.078 154.745C288.972 149.51 286.826 142.288 286.826 132H261.826H236.826C236.826 149.379 240.514 165.824 249.075 180.255L270.576 167.5ZM261.826 132H286.826C286.826 121.695 288.978 114.643 291.981 109.667L270.576 96.75L249.171 83.8334C240.508 98.19 236.826 114.638 236.826 132H261.826ZM270.576 96.75L291.917 109.772C295.845 103.335 300.444 99.023 305.684 96.1223L293.576 74.25L281.468 52.3777C268.041 59.8103 257.308 70.4987 249.235 83.7284L270.576 96.75ZM293.576 74.25L305.52 96.2121C311.408 93.0102 317.392 91.5 323.826 91.5V66.5V41.5C308.927 41.5 294.744 45.1565 281.632 52.2879L293.576 74.25ZM323.826 66.5V91.5C330.257 91.5 336.09 93.0068 341.718 96.1223L353.826 74.25L365.934 52.3777C352.895 45.1598 338.729 41.5 323.826 41.5V66.5ZM353.826 74.25L341.882 96.2121C347.195 99.1019 351.653 103.315 355.325 109.505L376.826 96.75L398.328 83.9949C390.333 70.5187 379.457 59.7314 365.77 52.2879L353.826 74.25ZM376.826 96.75L355.585 109.934C358.645 114.864 360.826 121.817 360.826 132H385.826H410.826C410.826 114.517 407.007 97.969 398.067 83.5659L376.826 96.75ZM385.826 132H360.826C360.826 142.167 358.651 149.29 355.485 154.478L376.826 167.5L398.167 180.522C407.001 166.043 410.826 149.499 410.826 132H385.826ZM376.826 167.5L355.421 154.583C351.777 160.623 347.306 164.838 341.882 167.788L353.826 189.75L365.77 211.712C379.347 204.329 390.209 193.71 398.231 180.417L376.826 167.5ZM353.826 189.75L341.718 167.878C336.09 170.993 330.257 172.5 323.826 172.5V197.5V222.5C338.729 222.5 352.895 218.84 365.934 211.622L353.826 189.75ZM323.826 163V188C330.628 188 338.062 186.538 345.001 182.375C352.034 178.155 356.931 172.133 360.072 165.657L337.576 154.75L315.081 143.843C315.554 142.867 316.827 140.97 319.276 139.5C321.632 138.087 323.524 138 323.826 138V163ZM337.576 154.75L359.937 165.93C365.156 155.493 366.826 143.606 366.826 132H341.826H316.826C316.826 139.394 315.663 142.674 315.216 143.57L337.576 154.75ZM341.826 132H366.826C366.826 120.456 365.176 108.486 359.801 98.0511L337.576 109.5L315.352 120.949C315.643 121.514 316.826 124.544 316.826 132H341.826ZM337.576 109.5L360.197 98.8551C357.143 92.3658 352.331 86.2161 345.284 81.8601C338.296 77.5404 330.757 76 323.826 76V101V126C323.396 126 321.398 125.876 318.993 124.39C316.53 122.867 315.343 120.968 314.956 120.145L337.576 109.5ZM323.826 101V76C316.88 76 309.41 77.5459 302.477 81.7553C295.506 85.9876 290.644 91.9626 287.465 98.3197L309.826 109.5L332.187 120.68C331.842 121.371 330.73 123.096 328.426 124.495C326.159 125.871 324.273 126 323.826 126V101ZM309.826 109.5L287.331 98.5932C282.354 108.858 280.826 120.608 280.826 132H305.826H330.826C330.826 124.392 331.965 121.142 332.322 120.407L309.826 109.5ZM305.826 132H280.826C280.826 143.453 282.374 155.127 287.206 165.395L309.826 154.75L332.447 144.105C331.945 143.04 330.826 139.547 330.826 132H305.826ZM309.826 154.75L287.602 166.199C290.865 172.533 295.805 178.378 302.759 182.476C309.642 186.532 317.008 188 323.826 188V163V138C324.145 138 325.927 138.093 328.143 139.399C330.43 140.747 331.621 142.467 332.051 143.301L309.826 154.75ZM408.219 194.5H383.219V219.5H408.219V194.5ZM408.219 69.5V44.5H383.219V69.5H408.219ZM443.219 69.5L467.733 64.5971L463.714 44.5H443.219V69.5ZM446.219 84.5L421.704 89.4029L425.724 109.5H446.219V84.5ZM447.219 84.5V109.5H457.327L464.594 102.475L447.219 84.5ZM464.219 72L476.311 93.881L476.407 93.8282L476.502 93.7745L464.219 72ZM516.469 80.5L495.439 94.0189L495.58 94.2382L495.726 94.4544L516.469 80.5ZM525.719 194.5V219.5H550.719V194.5H525.719ZM482.719 194.5H457.719V219.5H482.719V194.5ZM460.219 105.5L473.469 126.7L473.469 126.7L460.219 105.5ZM451.219 112.5L434.495 93.9176L426.219 101.366V112.5H451.219ZM451.219 194.5V219.5H476.219V194.5H451.219ZM408.219 194.5H433.219V69.5H408.219H383.219V194.5H408.219ZM408.219 69.5V94.5H443.219V69.5V44.5H408.219V69.5ZM443.219 69.5L418.704 74.4029L421.704 89.4029L446.219 84.5L470.733 79.5971L467.733 64.5971L443.219 69.5ZM446.219 84.5V109.5H447.219V84.5V59.5H446.219V84.5ZM447.219 84.5L464.594 102.475C467.95 99.2312 471.825 96.3603 476.311 93.881L464.219 72L452.127 50.119C443.946 54.6397 436.488 60.1021 429.843 66.5253L447.219 84.5ZM464.219 72L476.502 93.7745C478.758 92.5018 481.915 91.5 486.719 91.5V66.5V41.5C474.522 41.5 462.68 44.1649 451.936 50.2255L464.219 72ZM486.719 66.5V91.5C490.891 91.5 493.012 92.209 493.886 92.6205C494.542 92.929 494.944 93.2491 495.439 94.0189L516.469 80.5L537.498 66.981C525.737 48.6851 506.661 41.5 486.719 41.5V66.5ZM516.469 80.5L495.726 94.4544C498.207 98.1427 500.719 105.041 500.719 117.5H525.719H550.719C550.719 98.9585 547.064 81.1906 537.212 66.5456L516.469 80.5ZM525.719 117.5H500.719V194.5H525.719H550.719V117.5H525.719ZM525.719 194.5V169.5H482.719V194.5V219.5H525.719V194.5ZM482.719 194.5H507.719V123H482.719H457.719V194.5H482.719ZM482.719 123H507.719C507.719 118.108 507.425 113.109 506.541 108.393C505.727 104.052 504.026 97.7424 499.719 92L479.719 107L459.719 122C458.457 120.318 457.861 118.911 457.623 118.278C457.376 117.619 457.346 117.335 457.397 117.607C457.444 117.857 457.53 118.42 457.601 119.37C457.672 120.308 457.719 121.507 457.719 123H482.719ZM479.719 107L499.719 92C491.637 81.2243 479.838 78 470.219 78V103V128C469.892 128 468.319 127.957 466.142 127.041C463.772 126.043 461.462 124.325 459.719 122L479.719 107ZM470.219 103V78C462.794 78 454.557 79.5572 446.969 84.3L460.219 105.5L473.469 126.7C471.213 128.109 469.643 128 470.219 128V103ZM460.219 105.5L446.969 84.3C442.673 86.9847 438.493 90.3192 434.495 93.9176L451.219 112.5L467.943 131.082C470.611 128.681 472.431 127.349 473.469 126.7L460.219 105.5ZM451.219 112.5H426.219V194.5H451.219H476.219V112.5H451.219ZM451.219 194.5V169.5H408.219V194.5V219.5H451.219V194.5ZM599.227 115.5L575.004 109.315L574.972 109.439L574.942 109.564L599.227 115.5ZM596.477 126.75L572.192 120.814L564.629 151.75H596.477V126.75ZM626.477 126.75V151.75H658.324L650.762 120.814L626.477 126.75ZM623.727 115.5L648.012 109.564L647.981 109.439L647.95 109.315L623.727 115.5ZM611.727 64L636.009 58.0533L631.343 39H611.727V64ZM610.727 64V39H590.313L586.231 59.001L610.727 64ZM605.227 90L580.801 84.6708V84.6708L605.227 90ZM536.727 194.5L512.811 187.215L502.977 219.5H536.727V194.5ZM586.227 32V6.99998H567.708L562.312 24.7151L586.227 32ZM638.227 32L662.142 24.7151L656.745 6.99998H638.227V32ZM687.727 194.5V219.5H721.476L711.642 187.215L687.727 194.5ZM642.227 194.5L617.873 200.147L622.36 219.5H642.227V194.5ZM634.227 160L658.58 154.353L654.093 135H634.227V160ZM588.727 160V135H568.86L564.373 154.353L588.727 160ZM580.727 194.5V219.5H600.593L605.08 200.147L580.727 194.5ZM599.227 115.5L574.942 109.564L572.192 120.814L596.477 126.75L620.762 132.686L623.512 121.436L599.227 115.5ZM596.477 126.75V151.75H626.477V126.75V101.75H596.477V126.75ZM626.477 126.75L650.762 120.814L648.012 109.564L623.727 115.5L599.442 121.436L602.192 132.686L626.477 126.75ZM623.727 115.5L647.95 109.315C646.032 101.807 644.099 93.5953 642.152 84.6708L617.727 90L593.301 95.3292C595.354 104.738 597.421 113.527 599.504 121.685L623.727 115.5ZM617.727 90L642.152 84.6708C640.112 75.3209 638.065 66.4471 636.009 58.0533L611.727 64L587.444 69.9467C589.388 77.8863 591.341 86.3457 593.301 95.3292L617.727 90ZM611.727 64V39H610.727V64V89H611.727V64ZM610.727 64L586.231 59.001C584.59 67.0448 582.78 75.6007 580.801 84.6708L605.227 90L629.652 95.3292C631.673 86.066 633.53 77.2885 635.222 68.999L610.727 64ZM605.227 90L580.801 84.6708C578.854 93.5953 576.921 101.807 575.004 109.315L599.227 115.5L623.45 121.685C625.532 113.527 627.599 104.738 629.652 95.3292L605.227 90ZM536.727 194.5L560.642 201.785L610.142 39.2849L586.227 32L562.312 24.7151L512.811 187.215L536.727 194.5ZM586.227 32V57H638.227V32V6.99998H586.227V32ZM638.227 32L614.312 39.2849L663.812 201.785L687.727 194.5L711.642 187.215L662.142 24.7151L638.227 32ZM687.727 194.5V169.5H642.227V194.5V219.5H687.727V194.5ZM642.227 194.5L666.58 188.853L658.58 154.353L634.227 160L609.873 165.647L617.873 200.147L642.227 194.5ZM634.227 160V135H588.727V160V185H634.227V160ZM588.727 160L564.373 154.353L556.373 188.853L580.727 194.5L605.08 200.147L613.08 165.647L588.727 160ZM580.727 194.5V169.5H536.727V194.5V219.5H580.727V194.5ZM703.223 194.5H678.223V219.5H703.223V194.5ZM703.223 32V6.99998H678.223V32H703.223ZM746.223 32H771.223V6.99998H746.223V32ZM746.223 194.5V219.5H771.223V194.5H746.223ZM703.223 194.5H728.223V32H703.223H678.223V194.5H703.223ZM703.223 32V57H746.223V32V6.99998H703.223V32ZM746.223 32H721.223V194.5H746.223H771.223V32H746.223ZM746.223 194.5V169.5H703.223V194.5V219.5H746.223V194.5ZM837.324 233.25L845.128 209.499V209.499L837.324 233.25ZM784.324 186L761.427 196.037L761.453 196.095L761.479 196.153L784.324 186ZM785.324 94.75L762.318 84.9659L762.291 85.0311L762.263 85.0965L785.324 94.75ZM810.574 57.5L827.969 75.456L828.041 75.3864L828.112 75.3163L810.574 57.5ZM847.574 33.5L856.716 56.7688L856.835 56.7218L856.954 56.6737L847.574 33.5ZM972.074 69.25L949.986 80.9594L950.071 81.119L950.158 81.2774L972.074 69.25ZM977.824 147L954.8 137.259L954.72 137.448L954.643 137.638L977.824 147ZM963.824 168.75L981.244 186.682L981.374 186.556L981.502 186.428L963.824 168.75ZM944.574 181.75L953.954 204.924L954.189 204.829L954.422 204.729L944.574 181.75ZM904.324 181L891.367 202.38L891.507 202.465L891.649 202.548L904.324 181ZM893.824 167L918.078 160.937L913.344 142H893.824V167ZM893.324 167V142H879.565L872.204 153.624L893.324 167ZM879.574 179L868.394 156.639L868.267 156.703L868.141 156.768L879.574 179ZM838.574 173L819.624 189.306L819.827 189.542L820.036 189.773L838.574 173ZM833.324 121.75L856.88 130.125V130.125L833.324 121.75ZM844.324 101.75L825.074 85.7996L824.937 85.9649L824.802 86.1326L844.324 101.75ZM891.574 85.5L878.224 106.637L878.632 106.894L879.048 107.136L891.574 85.5ZM899.324 95L876.479 105.153L883.077 120H899.324V95ZM899.824 95V120H917.053L923.186 103.9L899.824 95ZM903.824 84.5V59.5H886.595L880.462 75.6001L903.824 84.5ZM929.824 84.5L954.288 89.6503L960.635 59.5H929.824V84.5ZM917.824 141.5L942.116 147.409L942.208 147.031L942.288 146.65L917.824 141.5ZM942.324 154.75L926.616 135.301V135.301L942.324 154.75ZM952.824 140L975.865 149.701L975.91 149.595L975.953 149.489L952.824 140ZM953.074 92.75L929.074 99.75L929.141 99.9791L929.212 100.207L953.074 92.75ZM941.574 71.25L922.203 87.0532L922.326 87.2043L922.451 87.3534L941.574 71.25ZM920.824 56.25L910.712 79.1134L910.897 79.1953L911.083 79.2742L920.824 56.25ZM858.074 57L868.014 79.9389V79.9389L858.074 57ZM831.074 75.5L848.752 93.1777V93.1777L831.074 75.5ZM811.824 104.5L788.828 94.6928L788.793 94.7764L788.758 94.8602L811.824 104.5ZM810.824 174L787.979 184.153V184.153L810.824 174ZM827.074 196.25L843.306 177.236V177.236L827.074 196.25ZM850.324 209.25L842.556 233.012H842.556L850.324 209.25ZM896.574 210.75L890.65 186.462L890.372 186.53L890.096 186.604L896.574 210.75ZM914.324 204.5L937.605 195.39L927.63 169.896L903.144 182.139L914.324 204.5ZM923.324 227.5L934.888 249.665L954.782 239.285L946.605 218.39L923.324 227.5ZM899.574 236.25L905.05 260.643V260.643L899.574 236.25ZM886.824 147L907.043 161.704L910.454 157.014L911.452 151.3L886.824 147ZM892.324 115.5L916.952 119.8L918.368 111.686L914.685 104.32L892.324 115.5ZM871.074 115L889.613 131.773L889.806 131.559L889.995 131.34L871.074 115ZM863.824 128L887.617 135.675V135.675L863.824 128ZM873.824 239V214C863.724 214 854.197 212.479 845.128 209.499L837.324 233.25L829.52 257.001C843.785 261.688 858.591 264 873.824 264V239ZM837.324 233.25L845.128 209.499C836.498 206.664 828.959 202.422 822.316 196.744L806.074 215.75L789.833 234.756C801.522 244.745 814.817 252.17 829.52 257.001L837.324 233.25ZM806.074 215.75L822.316 196.744C816.228 191.542 811.126 184.748 807.169 175.847L784.324 186L761.479 196.153C768.189 211.252 777.587 224.291 789.833 234.756L806.074 215.75ZM784.324 186L807.221 175.963C803.567 167.628 801.324 156.857 801.324 143H776.324H751.324C751.324 162.143 754.414 180.038 761.427 196.037L784.324 186ZM776.324 143H801.324C801.324 127.995 803.84 115.261 808.385 104.403L785.324 94.75L762.263 85.0965C754.808 102.906 751.324 122.338 751.324 143H776.324ZM785.324 94.75L808.33 104.534C813.271 92.9152 819.844 83.3277 827.969 75.456L810.574 57.5L793.179 39.544C779.972 52.339 769.71 67.5848 762.318 84.9659L785.324 94.75ZM810.574 57.5L828.112 75.3163C836.364 67.1934 845.837 61.0423 856.716 56.7688L847.574 33.5L838.433 10.2312C821.311 16.9577 806.118 26.8066 793.036 39.6837L810.574 57.5ZM847.574 33.5L856.954 56.6737C867.831 52.2711 879.548 50 892.324 50V25V-1.52588e-05C873.434 -1.52588e-05 855.317 3.39558 838.194 10.3263L847.574 33.5ZM892.324 25V50C907.229 50 918.873 53.1271 928.142 58.4398L940.574 36.75L953.006 15.0602C934.942 4.70625 914.42 -1.52588e-05 892.324 -1.52588e-05V25ZM940.574 36.75L928.142 58.4398C937.739 63.9402 944.879 71.3249 949.986 80.9594L972.074 69.25L994.162 57.5406C984.603 39.5084 970.743 25.2265 953.006 15.0602L940.574 36.75ZM972.074 69.25L950.158 81.2774C955.359 90.7563 958.324 102.259 958.324 116.5H983.324H1008.32C1008.32 95.0741 1003.79 75.077 993.991 57.2225L972.074 69.25ZM983.324 116.5H958.324C958.324 125.598 956.891 132.318 954.8 137.259L977.824 147L1000.85 156.741C1006.09 144.349 1008.32 130.735 1008.32 116.5H983.324ZM977.824 147L954.643 137.638C952.234 143.604 949.31 147.909 946.147 151.072L963.824 168.75L981.502 186.428C990.005 177.924 996.415 167.729 1001.01 156.362L977.824 147ZM963.824 168.75L946.405 150.818C942.615 154.499 938.729 157.056 934.726 158.771L944.574 181.75L954.422 204.729C964.42 200.444 973.367 194.334 981.244 186.682L963.824 168.75ZM944.574 181.75L935.194 158.576C930.861 160.33 927.121 161 923.824 161V186V211C934.194 211 944.288 208.836 953.954 204.924L944.574 181.75ZM923.824 186V161C920.421 161 918.394 160.272 917 159.452L904.324 181L891.649 202.548C901.588 208.395 912.561 211 923.824 211V186ZM904.324 181L917.282 159.62C917.116 159.519 917.101 159.492 917.183 159.565C917.269 159.641 917.413 159.786 917.574 160C917.736 160.216 917.867 160.438 917.961 160.639C918.053 160.837 918.081 160.95 918.078 160.937L893.824 167L869.571 173.063C872.739 185.737 880.48 195.782 891.367 202.38L904.324 181ZM893.824 167V142H893.324V167V192H893.824V167ZM893.324 167L872.204 153.624C871.783 154.288 870.88 155.396 868.394 156.639L879.574 179L890.755 201.361C900.269 196.604 908.532 189.712 914.445 180.376L893.324 167ZM879.574 179L868.141 156.768C866.498 157.612 865.28 158.056 864.465 158.282C864.063 158.393 863.774 158.447 863.589 158.474C863.497 158.487 863.43 158.494 863.387 158.497C863.365 158.498 863.35 158.499 863.339 158.5C863.334 158.5 863.33 158.5 863.328 158.5C863.327 158.5 863.326 158.5 863.325 158.5C863.325 158.5 863.325 158.5 863.324 158.5C863.324 158.5 863.324 158.5 863.324 158.5C863.322 158.5 863.327 158.5 863.324 158.5C863.322 158.5 863.327 158.5 863.324 158.5V183.5V208.5C873.345 208.5 882.7 205.505 891.008 201.232L879.574 179ZM863.324 183.5V158.5C859.611 158.5 858.311 157.552 857.113 156.227L838.574 173L820.036 189.773C831.504 202.448 846.704 208.5 863.324 208.5V183.5ZM838.574 173L857.524 156.694C856.059 154.991 854.324 151.865 854.324 145H829.324H804.324C804.324 161.135 808.756 176.675 819.624 189.306L838.574 173ZM829.324 145H854.324C854.324 139.839 855.174 134.923 856.88 130.125L833.324 121.75L809.769 113.375C806.141 123.577 804.324 134.161 804.324 145H829.324ZM833.324 121.75L856.88 130.125C858.675 125.074 861.028 120.889 863.846 117.367L844.324 101.75L824.802 86.1326C818.287 94.2773 813.306 103.426 809.769 113.375L833.324 121.75ZM844.324 101.75L863.575 117.7C866.608 114.04 869.809 111.397 873.164 109.492L860.824 87.75L848.484 66.0078C839.506 71.1034 831.707 77.7936 825.074 85.7996L844.324 101.75ZM860.824 87.75L873.164 109.492C875.527 108.151 877.935 107.5 880.824 107.5V82.5V57.5C869.38 57.5 858.455 60.3486 848.484 66.0078L860.824 87.75ZM880.824 82.5V107.5C880.723 107.5 880.346 107.484 879.792 107.33C879.226 107.172 878.682 106.926 878.224 106.637L891.574 85.5L904.924 64.3628C897.487 59.666 889.214 57.5 880.824 57.5V82.5ZM891.574 85.5L879.048 107.136C876.307 105.549 875.891 103.83 876.479 105.153L899.324 95L922.169 84.8465C918.758 77.1698 913.175 69.118 904.1 63.8643L891.574 85.5ZM899.324 95V120H899.824V95V70H899.324V95ZM899.824 95L923.186 103.9L927.186 93.3999L903.824 84.5L880.462 75.6001L876.462 86.1001L899.824 95ZM903.824 84.5V109.5H929.824V84.5V59.5H903.824V84.5ZM929.824 84.5L905.36 79.3497L893.36 136.35L917.824 141.5L942.288 146.65L954.288 89.6503L929.824 84.5ZM917.824 141.5L893.533 135.591C891.607 143.508 889.869 156.107 896.457 167.715C904.367 181.651 918.454 185 928.324 185V160V135C928.338 135 928.728 134.999 929.405 135.124C930.09 135.25 931.153 135.52 932.43 136.104C935.29 137.41 938.094 139.78 939.941 143.035C941.612 145.978 941.768 148.344 941.784 148.918C941.799 149.47 941.71 149.076 942.116 147.409L917.824 141.5ZM928.324 160V185C939.697 185 949.79 180.856 958.033 174.199L942.324 154.75L926.616 135.301C926.29 135.565 926.346 135.448 926.796 135.279C927.012 135.198 927.271 135.124 927.558 135.072C927.846 135.02 928.108 135 928.324 135V160ZM942.324 154.75L958.033 174.199C966.244 167.566 971.966 158.962 975.865 149.701L952.824 140L929.783 130.299C928.349 133.704 927.071 134.934 926.616 135.301L942.324 154.75ZM952.824 140L975.953 149.489C980.085 139.417 981.824 128.588 981.824 117.5H956.824H931.824C931.824 123.412 930.896 127.583 929.695 130.511L952.824 140ZM956.824 117.5H981.824C981.824 106.507 980.201 95.7412 976.936 85.2931L953.074 92.75L929.212 100.207C930.947 105.759 931.824 111.493 931.824 117.5H956.824ZM953.074 92.75L977.074 85.75C973.773 74.4314 968.287 64.1596 960.697 55.1466L941.574 71.25L922.451 87.3534C925.528 91.0071 927.709 95.0686 929.074 99.75L953.074 92.75ZM941.574 71.25L960.946 55.4468C952.84 45.5101 942.411 38.2375 930.565 33.2258L920.824 56.25L911.083 79.2742C916.571 81.5958 919.976 84.3232 922.203 87.0532L941.574 71.25ZM920.824 56.25L930.937 33.3866C918.205 27.7553 903.863 25.5 888.824 25.5V50.5V75.5C899.119 75.5 906.11 77.078 910.712 79.1134L920.824 56.25ZM888.824 50.5V25.5C874.775 25.5 861.15 28.4209 848.134 34.0611L858.074 57L868.014 79.9389C874.999 76.9124 881.874 75.5 888.824 75.5V50.5ZM858.074 57L848.134 34.0611C835.137 39.6932 823.535 47.6835 813.397 57.8223L831.074 75.5L848.752 93.1777C854.613 87.3165 861.012 82.9735 868.014 79.9389L858.074 57ZM831.074 75.5L813.397 57.8223C802.943 68.2756 794.803 80.6832 788.828 94.6928L811.824 104.5L834.82 114.307C838.512 105.65 843.205 98.7244 848.752 93.1777L831.074 75.5ZM811.824 104.5L788.758 94.8602C782.645 109.486 779.824 125.327 779.824 142H804.824H829.824C829.824 131.006 831.67 121.847 834.891 114.14L811.824 104.5ZM804.824 142H779.824C779.824 156.976 782.248 171.258 787.979 184.153L810.824 174L833.669 163.847C831.401 158.742 829.824 151.69 829.824 142H804.824ZM810.824 174L787.979 184.153C793.347 196.231 800.907 206.782 810.843 215.264L827.074 196.25L843.306 177.236C839.575 174.051 836.302 169.769 833.669 163.847L810.824 174ZM827.074 196.25L810.843 215.264C820.197 223.25 830.832 229.18 842.556 233.012L850.324 209.25L858.093 185.488C852.483 183.654 847.618 180.917 843.306 177.236L827.074 196.25ZM850.324 209.25L842.556 233.012C853.79 236.685 865.415 238.5 877.324 238.5V213.5V188.5C870.566 188.5 864.192 187.482 858.093 185.488L850.324 209.25ZM877.324 213.5V238.5C885.861 238.5 894.473 237.198 903.052 234.896L896.574 210.75L890.096 186.604C885.009 187.969 880.787 188.5 877.324 188.5V213.5ZM896.574 210.75L902.498 235.038C910.706 233.036 918.466 230.38 925.505 226.861L914.324 204.5L903.144 182.139C900.183 183.62 896.109 185.131 890.65 186.462L896.574 210.75ZM914.324 204.5L891.043 213.61L900.043 236.61L923.324 227.5L946.605 218.39L937.605 195.39L914.324 204.5ZM923.324 227.5L911.76 205.335C905.953 208.365 900.078 210.515 894.098 211.857L899.574 236.25L905.05 260.643C915.404 258.319 925.362 254.635 934.888 249.665L923.324 227.5ZM899.574 236.25L894.098 211.857C887.858 213.258 881.119 214 873.824 214V239V264C884.529 264 894.957 262.909 905.05 260.643L899.574 236.25ZM872.824 157V182C880.885 182 888.018 179.311 893.804 175.305L879.574 154.75L865.344 134.195C866.797 133.189 869.43 132 872.824 132V157ZM879.574 154.75L893.804 175.305C899.366 171.455 903.735 166.253 907.043 161.704L886.824 147L866.606 132.296C865.718 133.516 865.098 134.242 864.755 134.609C864.593 134.782 864.545 134.818 864.616 134.755C864.683 134.695 864.925 134.485 865.344 134.195L879.574 154.75ZM886.824 147L911.452 151.3L916.952 119.8L892.324 115.5L867.697 111.2L862.197 142.7L886.824 147ZM892.324 115.5L914.685 104.32C911.886 98.7216 907.516 93.36 901.187 89.5627C894.92 85.8029 888.276 84.5 882.324 84.5V109.5V134.5C881.039 134.5 878.395 134.197 875.462 132.437C872.466 130.64 870.763 128.278 869.964 126.68L892.324 115.5ZM882.324 109.5V84.5C869.817 84.5 859.441 90.2212 852.154 98.6595L871.074 115L889.995 131.34C889.723 131.656 888.848 132.55 887.242 133.335C885.566 134.154 883.814 134.5 882.324 134.5V109.5ZM871.074 115L852.536 98.2272C846.662 104.72 842.623 112.292 840.031 120.325L863.824 128L887.617 135.675C888.359 133.375 889.153 132.28 889.613 131.773L871.074 115ZM863.824 128L840.031 120.325C837.724 127.477 836.324 134.921 836.324 142.5H861.324H886.324C886.324 141.079 886.591 138.857 887.617 135.675L863.824 128ZM861.324 142.5H836.324C836.324 149.967 837.693 160.186 844.612 168.91C852.407 178.739 863.398 182 872.824 182V157V132C873.493 132 875.234 132.103 877.479 133.047C879.877 134.054 882.1 135.713 883.787 137.84C886.872 141.731 886.324 144.7 886.324 142.5H861.324ZM1013.28 194.5H988.281V219.5H1013.28V194.5ZM1013.28 32V6.99998H988.281V32H1013.28ZM1056.28 32H1081.28V6.99998H1056.28V32ZM1056.28 92.5H1031.28V117.5H1056.28V92.5ZM1057.28 92.5V117.5H1070.54L1077.98 106.525L1057.28 92.5ZM1098.28 32V6.99998H1085.02L1077.59 17.975L1098.28 32ZM1145.28 32L1165.43 46.8039L1194.68 6.99998H1145.28V32ZM1096.78 98L1076.64 83.1961L1066.78 96.6106L1075.35 110.879L1096.78 98ZM1154.78 194.5V219.5H1198.98L1176.21 181.621L1154.78 194.5ZM1107.78 194.5L1086.12 206.978L1093.33 219.5H1107.78V194.5ZM1071.78 132L1093.44 119.522L1073.9 85.5883L1051.34 117.601L1071.78 132ZM1056.28 154L1035.84 139.601L1031.28 146.078V154H1056.28ZM1056.28 194.5V219.5H1081.28V194.5H1056.28ZM1013.28 194.5H1038.28V32H1013.28H988.281V194.5H1013.28ZM1013.28 32V57H1056.28V32V6.99998H1013.28V32ZM1056.28 32H1031.28V92.5H1056.28H1081.28V32H1056.28ZM1056.28 92.5V117.5H1057.28V92.5V67.5H1056.28V92.5ZM1057.28 92.5L1077.98 106.525L1118.98 46.025L1098.28 32L1077.59 17.975L1036.59 78.475L1057.28 92.5ZM1098.28 32V57H1145.28V32V6.99998H1098.28V32ZM1145.28 32L1125.14 17.1961L1076.64 83.1961L1096.78 98L1116.93 112.804L1165.43 46.8039L1145.28 32ZM1096.78 98L1075.35 110.879L1133.35 207.379L1154.78 194.5L1176.21 181.621L1118.21 85.1213L1096.78 98ZM1154.78 194.5V169.5H1107.78V194.5V219.5H1154.78V194.5ZM1107.78 194.5L1129.44 182.022L1093.44 119.522L1071.78 132L1050.12 144.478L1086.12 206.978L1107.78 194.5ZM1071.78 132L1051.34 117.601L1035.84 139.601L1056.28 154L1076.72 168.399L1092.22 146.399L1071.78 132ZM1056.28 154H1031.28V194.5H1056.28H1081.28V154H1056.28ZM1056.28 194.5V169.5H1013.28V194.5V219.5H1056.28V194.5ZM1209.82 115.5L1185.6 109.315L1185.57 109.439L1185.54 109.564L1209.82 115.5ZM1207.07 126.75L1182.79 120.814L1175.23 151.75H1207.07V126.75ZM1237.07 126.75V151.75H1268.92L1261.36 120.814L1237.07 126.75ZM1234.32 115.5L1258.61 109.564L1258.58 109.439L1258.55 109.315L1234.32 115.5ZM1222.32 64L1246.6 58.0533L1241.94 39H1222.32V64ZM1221.32 64V39H1200.91L1196.83 59.001L1221.32 64ZM1215.82 90L1191.4 84.6708V84.6708L1215.82 90ZM1147.32 194.5L1123.41 187.215L1113.57 219.5H1147.32V194.5ZM1196.82 32V6.99998H1178.3L1172.91 24.7151L1196.82 32ZM1248.82 32L1272.74 24.7151L1267.34 6.99998H1248.82V32ZM1298.32 194.5V219.5H1332.07L1322.24 187.215L1298.32 194.5ZM1252.82 194.5L1228.47 200.147L1232.96 219.5H1252.82V194.5ZM1244.82 160L1269.18 154.353L1264.69 135H1244.82V160ZM1199.32 160V135H1179.46L1174.97 154.353L1199.32 160ZM1191.32 194.5V219.5H1211.19L1215.68 200.147L1191.32 194.5ZM1209.82 115.5L1185.54 109.564L1182.79 120.814L1207.07 126.75L1231.36 132.686L1234.11 121.436L1209.82 115.5ZM1207.07 126.75V151.75H1237.07V126.75V101.75H1207.07V126.75ZM1237.07 126.75L1261.36 120.814L1258.61 109.564L1234.32 115.5L1210.04 121.436L1212.79 132.686L1237.07 126.75ZM1234.32 115.5L1258.55 109.315C1256.63 101.807 1254.69 93.5953 1252.75 84.6708L1228.32 90L1203.9 95.3292C1205.95 104.738 1208.02 113.527 1210.1 121.685L1234.32 115.5ZM1228.32 90L1252.75 84.6708C1250.71 75.3209 1248.66 66.4471 1246.6 58.0533L1222.32 64L1198.04 69.9467C1199.98 77.8863 1201.94 86.3457 1203.9 95.3292L1228.32 90ZM1222.32 64V39H1221.32V64V89H1222.32V64ZM1221.32 64L1196.83 59.001C1195.19 67.0448 1193.38 75.6007 1191.4 84.6708L1215.82 90L1240.25 95.3292C1242.27 86.066 1244.13 77.2885 1245.82 68.999L1221.32 64ZM1215.82 90L1191.4 84.6708C1189.45 93.5953 1187.52 101.807 1185.6 109.315L1209.82 115.5L1234.05 121.685C1236.13 113.527 1238.19 104.738 1240.25 95.3292L1215.82 90ZM1147.32 194.5L1171.24 201.785L1220.74 39.2849L1196.82 32L1172.91 24.7151L1123.41 187.215L1147.32 194.5ZM1196.82 32V57H1248.82V32V6.99998H1196.82V32ZM1248.82 32L1224.91 39.2849L1274.41 201.785L1298.32 194.5L1322.24 187.215L1272.74 24.7151L1248.82 32ZM1298.32 194.5V169.5H1252.82V194.5V219.5H1298.32V194.5ZM1252.82 194.5L1277.18 188.853L1269.18 154.353L1244.82 160L1220.47 165.647L1228.47 200.147L1252.82 194.5ZM1244.82 160V135H1199.32V160V185H1244.82V160ZM1199.32 160L1174.97 154.353L1166.97 188.853L1191.32 194.5L1215.68 200.147L1223.68 165.647L1199.32 160ZM1191.32 194.5V169.5H1147.32V194.5V219.5H1191.32V194.5ZM1313.82 194.5H1288.82V219.5H1313.82V194.5ZM1313.82 32V6.99998H1288.82V32H1313.82ZM1356.82 32H1381.82V6.99998H1356.82V32ZM1356.82 194.5V219.5H1381.82V194.5H1356.82ZM1313.82 194.5H1338.82V32H1313.82H1288.82V194.5H1313.82ZM1313.82 32V57H1356.82V32V6.99998H1313.82V32ZM1356.82 32H1331.82V194.5H1356.82H1381.82V32H1356.82ZM1356.82 194.5V169.5H1313.82V194.5V219.5H1356.82V194.5ZM1412.67 191.75L1420.9 168.142V168.142L1412.67 191.75ZM1382.92 174.25L1363.69 158.277L1348.22 176.896L1366.33 192.955L1382.92 174.25ZM1407.42 144.75L1423.04 125.228L1403.87 109.895L1388.19 128.777L1407.42 144.75ZM1426.17 156.25L1415.91 179.048L1416.25 179.201L1416.59 179.344L1426.17 156.25ZM1459.42 157.5L1445.55 136.699L1445.28 136.884L1445 137.076L1459.42 157.5ZM1457.92 140.25L1446.36 162.415L1446.55 162.514L1446.74 162.611L1457.92 140.25ZM1441.92 133.25L1432.24 156.302L1432.54 156.424L1432.83 156.539L1441.92 133.25ZM1421.67 124.75L1431.35 101.698L1431.19 101.633L1431.03 101.569L1421.67 124.75ZM1398.67 108.25L1379.78 124.623L1379.88 124.742L1379.98 124.859L1398.67 108.25ZM1396.67 54.25L1417.26 68.4326L1417.33 68.3273L1417.4 68.2213L1396.67 54.25ZM1417.92 36L1429.1 58.3607L1429.18 58.3202L1429.26 58.2791L1417.92 36ZM1477.67 34.5L1468.67 57.8231L1468.91 57.9174L1469.16 58.0066L1477.67 34.5ZM1503.42 50.75L1522.98 66.3232L1537.04 48.6601L1520.9 32.8748L1503.42 50.75ZM1481.92 77.75L1467.63 98.2599L1486.87 111.671L1501.48 93.3232L1481.92 77.75ZM1465.92 69L1456.64 92.2119L1456.76 92.2638L1456.9 92.3142L1465.92 69ZM1436.92 68.75L1424.39 47.1143L1424.14 47.2631L1423.88 47.418L1436.92 68.75ZM1438.92 86L1427.74 108.361L1428.09 108.535L1428.44 108.699L1438.92 86ZM1456.42 93.25L1465.55 69.9776L1465.49 69.9537L1465.43 69.93L1456.42 93.25ZM1476.17 101L1485.32 77.7358L1485.31 77.7317L1485.3 77.7276L1476.17 101ZM1499.67 117.75L1519.5 102.53L1499.67 117.75ZM1500.42 171.25L1479.22 158L1479.18 158.061L1479.14 158.122L1500.42 171.25ZM1478.92 190.25L1467.58 167.968V167.968L1478.92 190.25ZM1444.42 197.5V172.5C1437.43 172.5 1429.63 171.186 1420.9 168.142L1412.67 191.75L1404.44 215.358C1417.71 219.98 1431.08 222.5 1444.42 222.5V197.5ZM1412.67 191.75L1420.9 168.142C1413.02 165.397 1405.93 161.245 1399.51 155.545L1382.92 174.25L1366.33 192.955C1377.57 202.922 1390.32 210.436 1404.44 215.358L1412.67 191.75ZM1382.92 174.25L1402.15 190.223L1426.65 160.723L1407.42 144.75L1388.19 128.777L1363.69 158.277L1382.92 174.25ZM1407.42 144.75L1391.8 164.272C1399.24 170.223 1407.29 175.167 1415.91 179.048L1426.17 156.25L1436.43 133.452C1431.72 131.333 1427.27 128.611 1423.04 125.228L1407.42 144.75ZM1426.17 156.25L1416.59 179.344C1425.78 183.151 1435.46 185.5 1445.42 185.5V160.5V135.5C1443.37 135.5 1440.23 135.016 1435.75 133.156L1426.17 156.25ZM1445.42 160.5V185.5C1453.21 185.5 1464.46 184.545 1473.84 177.924L1459.42 157.5L1445 137.076C1446.13 136.283 1447.08 135.835 1447.67 135.601C1448.25 135.367 1448.58 135.299 1448.56 135.305C1448.54 135.309 1448.28 135.363 1447.72 135.412C1447.17 135.461 1446.41 135.5 1445.42 135.5V160.5ZM1459.42 157.5L1473.29 178.301C1483.38 171.571 1488.92 160.855 1488.92 149H1463.92H1438.92C1438.92 147.347 1439.28 144.853 1440.7 142.178C1442.13 139.485 1444.03 137.711 1445.55 136.699L1459.42 157.5ZM1463.92 149H1488.92C1488.92 142.481 1487.13 135.772 1483.04 129.799C1479.09 124.037 1473.91 120.293 1469.1 117.889L1457.92 140.25L1446.74 162.611C1445.93 162.207 1443.75 160.921 1441.8 158.076C1439.71 155.02 1438.92 151.686 1438.92 149H1463.92ZM1457.92 140.25L1469.48 118.085C1464.48 115.477 1458.19 112.764 1451.01 109.961L1441.92 133.25L1432.83 156.539C1439.31 159.069 1443.69 161.023 1446.36 162.415L1457.92 140.25ZM1441.92 133.25L1451.6 110.198L1431.35 101.698L1421.67 124.75L1411.99 147.802L1432.24 156.302L1441.92 133.25ZM1421.67 124.75L1431.03 101.569C1426.2 99.6165 1421.65 96.4776 1417.36 91.6409L1398.67 108.25L1379.98 124.859C1389.02 135.022 1399.81 142.883 1412.31 147.931L1421.67 124.75ZM1398.67 108.25L1417.56 91.8767C1415.67 89.6982 1413.92 86.2653 1413.92 79.5H1388.92H1363.92C1363.92 96.0681 1368.67 111.802 1379.78 124.623L1398.67 108.25ZM1388.92 79.5H1413.92C1413.92 75.0981 1415.04 71.6523 1417.26 68.4326L1396.67 54.25L1376.08 40.0674C1367.97 51.8477 1363.92 65.2352 1363.92 79.5H1388.92ZM1396.67 54.25L1417.4 68.2213C1419.95 64.4387 1423.6 61.1091 1429.1 58.3607L1417.92 36L1406.74 13.6393C1394.24 19.8909 1383.72 28.728 1375.94 40.2787L1396.67 54.25ZM1417.92 36L1429.26 58.2791C1434.42 55.6528 1440.93 54 1449.42 54V29V3.99998C1434.24 3.99998 1419.75 7.01389 1406.58 13.7209L1417.92 36ZM1449.42 29V54C1455.41 54 1461.78 55.1636 1468.67 57.8231L1477.67 34.5L1486.67 11.1769C1474.56 6.50301 1462.1 3.99998 1449.42 3.99998V29ZM1477.67 34.5L1469.16 58.0066C1475.4 60.2661 1480.94 63.7355 1485.94 68.6252L1503.42 50.75L1520.9 32.8748C1510.9 23.0978 1499.27 15.7339 1486.18 10.9933L1477.67 34.5ZM1503.42 50.75L1483.86 35.1768L1462.36 62.1768L1481.92 77.75L1501.48 93.3232L1522.98 66.3232L1503.42 50.75ZM1481.92 77.75L1496.21 57.24C1489.41 52.4947 1482.31 48.5387 1474.94 45.6858L1465.92 69L1456.9 92.3142C1459.86 93.4613 1463.43 95.3387 1467.63 98.2599L1481.92 77.75ZM1465.92 69L1475.2 45.7881C1466.93 42.4793 1458.24 41 1449.42 41V66V91C1452.6 91 1454.91 91.5207 1456.64 92.2119L1465.92 69ZM1449.42 66V41C1441.57 41 1432.62 42.3522 1424.39 47.1143L1436.92 68.75L1449.45 90.3857C1448.47 90.952 1447.81 91.0985 1447.79 91.1036C1447.78 91.1066 1447.9 91.0794 1448.18 91.0522C1448.45 91.0249 1448.86 91 1449.42 91V66ZM1436.92 68.75L1423.88 47.418C1413.07 54.0249 1407.42 65.0789 1407.42 77H1432.42H1457.42C1457.42 78.6336 1457.06 81.2805 1455.49 84.1588C1453.9 87.085 1451.73 88.999 1449.96 90.082L1436.92 68.75ZM1432.42 77H1407.42C1407.42 92.9542 1417.6 103.292 1427.74 108.361L1438.92 86L1450.1 63.6393C1450.46 63.8215 1452.42 64.8646 1454.31 67.4877C1456.42 70.4084 1457.42 73.8627 1457.42 77H1432.42ZM1438.92 86L1428.44 108.699C1433.47 111.017 1439.85 113.65 1447.41 116.57L1456.42 93.25L1465.43 69.93C1458.32 67.183 1453.04 64.9829 1449.4 63.301L1438.92 86ZM1456.42 93.25L1447.29 116.522L1467.04 124.272L1476.17 101L1485.3 77.7276L1465.55 69.9776L1456.42 93.25ZM1476.17 101L1467.02 124.264C1473.85 126.951 1477.63 130.092 1479.84 132.97L1499.67 117.75L1519.5 102.53C1510.71 91.0746 1498.83 83.0491 1485.32 77.7358L1476.17 101ZM1499.67 117.75L1479.84 132.97C1481.21 134.762 1482.92 138.246 1482.92 145.5H1507.92H1532.92C1532.92 130.087 1529.13 115.072 1519.5 102.53L1499.67 117.75ZM1507.92 145.5H1482.92C1482.92 149.839 1481.81 153.851 1479.22 158L1500.42 171.25L1521.62 184.5C1529.03 172.649 1532.92 159.494 1532.92 145.5H1507.92ZM1500.42 171.25L1479.14 158.122C1477.08 161.466 1473.65 164.882 1467.58 167.968L1478.92 190.25L1490.26 212.532C1503.19 205.952 1514.09 196.7 1521.7 184.378L1500.42 171.25ZM1478.92 190.25L1467.58 167.968C1462.41 170.602 1455 172.5 1444.42 172.5V197.5V222.5C1460.84 222.5 1476.43 219.564 1490.26 212.532L1478.92 190.25ZM1560.15 194.5H1535.15V219.5H1560.15V194.5ZM1560.15 68H1585.15V43H1560.15V68ZM1517.15 68H1492.15V93H1517.15V68ZM1517.15 32V6.99998H1492.15V32H1517.15ZM1646.15 32H1671.15V6.99998H1646.15V32ZM1646.15 68V93H1671.15V68H1646.15ZM1603.15 68V43H1578.15V68H1603.15ZM1603.15 194.5V219.5H1628.15V194.5H1603.15ZM1560.15 194.5H1585.15V68H1560.15H1535.15V194.5H1560.15ZM1560.15 68V43H1517.15V68V93H1560.15V68ZM1517.15 68H1542.15V32H1517.15H1492.15V68H1517.15ZM1517.15 32V57H1646.15V32V6.99998H1517.15V32ZM1646.15 32H1621.15V68H1646.15H1671.15V32H1646.15ZM1646.15 68V43H1603.15V68V93H1646.15V68ZM1603.15 68H1578.15V194.5H1603.15H1628.15V68H1603.15ZM1603.15 194.5V169.5H1560.15V194.5V219.5H1603.15V194.5Z" fill="white" mask="url(#path-1-outside-1_119_18)"/>
</g>
<defs>
<filter id="filter0_d_119_18" x="0" y="0" width="1671.15" height="279" filterUnits="userSpaceOnUse" color-interpolation-filters="sRGB">
<feFlood flood-opacity="0" result="BackgroundImageFix"/>
<feColorMatrix in="SourceAlpha" type="matrix" values="0 0 0 0 0 0 0 0 0 0 0 0 0 0 0 0 0 0 127 0" result="hardAlpha"/>
<feOffset dy="15"/>
<feComposite in2="hardAlpha" operator="out"/>
<feColorMatrix type="matrix" values="0 0 0 0 0 0 0 0 0 0 0 0 0 0 0 0 0 0 0.5 0"/>
<feBlend mode="normal" in2="BackgroundImageFix" result="effect1_dropShadow_119_18"/>
<feBlend mode="normal" in="SourceGraphic" in2="effect1_dropShadow_119_18" result="shape"/>
</filter>
</defs>
</svg>
