<svg width="758" height="349" viewBox="0 0 758 349" fill="none" xmlns="http://www.w3.org/2000/svg">
<path d="M18 246V83.5H123V119.5H61V145H114V181H61V210H125.5V246H18ZM207.475 249C195.641 249 184.975 246.417 175.475 241.25C165.975 236.083 158.391 228.667 152.725 219C147.225 209.167 144.475 197.333 144.475 183.5C144.475 169.667 147.558 157.917 153.725 148.25C160.058 138.417 168.308 130.917 178.475 125.75C188.641 120.583 199.641 118 211.475 118C218.975 118 225.725 119.167 231.725 121.5C237.891 123.833 243.308 127 247.975 131L227.975 158.5C225.308 156.167 222.891 154.583 220.725 153.75C218.558 152.917 216.308 152.5 213.975 152.5C205.975 152.5 199.725 155.333 195.225 161C190.725 166.5 188.475 174 188.475 183.5C188.475 193 190.808 200.583 195.475 206.25C200.141 211.75 205.808 214.5 212.475 214.5C215.975 214.5 219.391 213.75 222.725 212.25C226.225 210.583 229.475 208.667 232.475 206.5L248.975 234.5C242.808 240 235.975 243.833 228.475 246C220.975 248 213.975 249 207.475 249ZM316.826 249C306.16 249 296.076 246.417 286.576 241.25C277.243 236.083 269.576 228.667 263.576 219C257.743 209.167 254.826 197.333 254.826 183.5C254.826 169.667 257.743 157.917 263.576 148.25C269.576 138.417 277.243 130.917 286.576 125.75C296.076 120.583 306.16 118 316.826 118C327.493 118 337.493 120.583 346.826 125.75C356.326 130.917 363.993 138.417 369.826 148.25C375.826 157.917 378.826 169.667 378.826 183.5C378.826 197.333 375.826 209.167 369.826 219C363.993 228.667 356.326 236.083 346.826 241.25C337.493 246.417 327.493 249 316.826 249ZM316.826 214.5C323.326 214.5 327.91 211.75 330.576 206.25C333.41 200.583 334.826 193 334.826 183.5C334.826 174 333.41 166.5 330.576 161C327.91 155.333 323.326 152.5 316.826 152.5C310.326 152.5 305.66 155.333 302.826 161C300.16 166.5 298.826 174 298.826 183.5C298.826 193 300.16 200.583 302.826 206.25C305.66 211.75 310.326 214.5 316.826 214.5ZM401.219 246V121H436.219L439.219 136H440.219C445.219 131.167 450.885 127 457.219 123.5C463.719 119.833 471.219 118 479.719 118C493.552 118 503.469 122.667 509.469 132C515.635 141.167 518.719 153.5 518.719 169V246H475.719V174.5C475.719 166.5 474.719 161.167 472.719 158.5C470.719 155.833 467.552 154.5 463.219 154.5C459.219 154.5 455.885 155.333 453.219 157C450.552 158.667 447.552 161 444.219 164V246H401.219ZM592.227 167L589.477 178.25H619.477L616.727 167C614.727 159.167 612.727 150.667 610.727 141.5C608.727 132.333 606.727 123.667 604.727 115.5H603.727C602.06 123.667 600.227 132.333 598.227 141.5C596.227 150.667 594.227 159.167 592.227 167ZM529.727 246L579.227 83.5H631.227L680.727 246H635.227L627.227 211.5H581.727L573.727 246H529.727ZM696.223 246V83.5H739.223V246H696.223Z" fill="#004191"/>
<path d="M24.736 339V314.3H40.696V319.772H31.272V323.648H39.328V329.12H31.272V333.528H41.076V339H24.736ZM53.5361 339.456C51.7375 339.456 50.1161 339.063 48.6721 338.278C47.2281 337.493 46.0755 336.365 45.2141 334.896C44.3781 333.401 43.9601 331.603 43.9601 329.5C43.9601 327.397 44.4288 325.611 45.3661 324.142C46.3288 322.647 47.5828 321.507 49.1281 320.722C50.6735 319.937 52.3455 319.544 54.1441 319.544C55.2841 319.544 56.3101 319.721 57.2221 320.076C58.1595 320.431 58.9828 320.912 59.6921 321.52L56.6521 325.7C56.2468 325.345 55.8795 325.105 55.5501 324.978C55.2208 324.851 54.8788 324.788 54.5241 324.788C53.3081 324.788 52.3581 325.219 51.6741 326.08C50.9901 326.916 50.6481 328.056 50.6481 329.5C50.6481 330.944 51.0028 332.097 51.7121 332.958C52.4215 333.794 53.2828 334.212 54.2961 334.212C54.8281 334.212 55.3475 334.098 55.8541 333.87C56.3861 333.617 56.8801 333.325 57.3361 332.996L59.8441 337.252C58.9068 338.088 57.8681 338.671 56.7281 339C55.5881 339.304 54.5241 339.456 53.5361 339.456ZM70.1576 339.456C68.5362 339.456 67.0036 339.063 65.5596 338.278C64.1409 337.493 62.9756 336.365 62.0636 334.896C61.1769 333.401 60.7336 331.603 60.7336 329.5C60.7336 327.397 61.1769 325.611 62.0636 324.142C62.9756 322.647 64.1409 321.507 65.5596 320.722C67.0036 319.937 68.5362 319.544 70.1576 319.544C71.7789 319.544 73.2989 319.937 74.7176 320.722C76.1616 321.507 77.3269 322.647 78.2136 324.142C79.1256 325.611 79.5816 327.397 79.5816 329.5C79.5816 331.603 79.1256 333.401 78.2136 334.896C77.3269 336.365 76.1616 337.493 74.7176 338.278C73.2989 339.063 71.7789 339.456 70.1576 339.456ZM70.1576 334.212C71.1456 334.212 71.8422 333.794 72.2476 332.958C72.6782 332.097 72.8936 330.944 72.8936 329.5C72.8936 328.056 72.6782 326.916 72.2476 326.08C71.8422 325.219 71.1456 324.788 70.1576 324.788C69.1696 324.788 68.4602 325.219 68.0296 326.08C67.6242 326.916 67.4216 328.056 67.4216 329.5C67.4216 330.944 67.6242 332.097 68.0296 332.958C68.4602 333.794 69.1696 334.212 70.1576 334.212ZM82.9853 339V320H88.3053L88.7613 322.28H88.9133C89.6733 321.545 90.5346 320.912 91.4973 320.38C92.4853 319.823 93.6253 319.544 94.9173 319.544C97.0199 319.544 98.5273 320.253 99.4393 321.672C100.377 323.065 100.845 324.94 100.845 327.296V339H94.3093V328.132C94.3093 326.916 94.1573 326.105 93.8533 325.7C93.5493 325.295 93.0679 325.092 92.4093 325.092C91.8013 325.092 91.2946 325.219 90.8893 325.472C90.4839 325.725 90.0279 326.08 89.5213 326.536V339H82.9853ZM113.538 339.456C111.917 339.456 110.384 339.063 108.94 338.278C107.522 337.493 106.356 336.365 105.444 334.896C104.558 333.401 104.114 331.603 104.114 329.5C104.114 327.397 104.558 325.611 105.444 324.142C106.356 322.647 107.522 321.507 108.94 320.722C110.384 319.937 111.917 319.544 113.538 319.544C115.16 319.544 116.68 319.937 118.098 320.722C119.542 321.507 120.708 322.647 121.594 324.142C122.506 325.611 122.962 327.397 122.962 329.5C122.962 331.603 122.506 333.401 121.594 334.896C120.708 336.365 119.542 337.493 118.098 338.278C116.68 339.063 115.16 339.456 113.538 339.456ZM113.538 334.212C114.526 334.212 115.223 333.794 115.628 332.958C116.059 332.097 116.274 330.944 116.274 329.5C116.274 328.056 116.059 326.916 115.628 326.08C115.223 325.219 114.526 324.788 113.538 324.788C112.55 324.788 111.841 325.219 111.41 326.08C111.005 326.916 110.802 328.056 110.802 329.5C110.802 330.944 111.005 332.097 111.41 332.958C111.841 333.794 112.55 334.212 113.538 334.212ZM126.366 339V320H131.686L132.142 322.318H132.294C133.054 321.583 133.865 320.937 134.726 320.38C135.613 319.823 136.702 319.544 137.994 319.544C139.286 319.544 140.35 319.81 141.186 320.342C142.047 320.849 142.731 321.596 143.238 322.584C144.023 321.773 144.872 321.064 145.784 320.456C146.696 319.848 147.798 319.544 149.09 319.544C151.193 319.544 152.713 320.253 153.65 321.672C154.613 323.065 155.094 324.94 155.094 327.296V339H148.558V328.132C148.558 326.916 148.406 326.105 148.102 325.7C147.798 325.295 147.317 325.092 146.658 325.092C145.847 325.092 144.961 325.573 143.998 326.536V339H137.462V328.132C137.462 326.916 137.31 326.105 137.006 325.7C136.702 325.295 136.221 325.092 135.562 325.092C134.751 325.092 133.865 325.573 132.902 326.536V339H126.366ZM159.356 339V320H165.892V339H159.356ZM162.624 317.644C161.56 317.644 160.699 317.353 160.04 316.77C159.382 316.162 159.052 315.364 159.052 314.376C159.052 313.388 159.382 312.603 160.04 312.02C160.699 311.412 161.56 311.108 162.624 311.108C163.688 311.108 164.55 311.412 165.208 312.02C165.867 312.603 166.196 313.388 166.196 314.376C166.196 315.364 165.867 316.162 165.208 316.77C164.55 317.353 163.688 317.644 162.624 317.644ZM178.892 339.456C177.093 339.456 175.472 339.063 174.028 338.278C172.584 337.493 171.431 336.365 170.57 334.896C169.734 333.401 169.316 331.603 169.316 329.5C169.316 327.397 169.784 325.611 170.722 324.142C171.684 322.647 172.938 321.507 174.484 320.722C176.029 319.937 177.701 319.544 179.5 319.544C180.64 319.544 181.666 319.721 182.578 320.076C183.515 320.431 184.338 320.912 185.048 321.52L182.008 325.7C181.602 325.345 181.235 325.105 180.906 324.978C180.576 324.851 180.234 324.788 179.88 324.788C178.664 324.788 177.714 325.219 177.03 326.08C176.346 326.916 176.004 328.056 176.004 329.5C176.004 330.944 176.358 332.097 177.068 332.958C177.777 333.794 178.638 334.212 179.652 334.212C180.184 334.212 180.703 334.098 181.21 333.87C181.742 333.617 182.236 333.325 182.692 332.996L185.2 337.252C184.262 338.088 183.224 338.671 182.084 339C180.944 339.304 179.88 339.456 178.892 339.456ZM196.367 339V314.3H205.411C207.21 314.3 208.869 314.553 210.389 315.06C211.909 315.567 213.125 316.415 214.037 317.606C214.974 318.797 215.443 320.431 215.443 322.508C215.443 324.509 214.974 326.156 214.037 327.448C213.125 328.715 211.909 329.652 210.389 330.26C208.894 330.868 207.286 331.172 205.563 331.172H202.903V339H196.367ZM202.903 326.004H205.259C206.551 326.004 207.501 325.7 208.109 325.092C208.742 324.459 209.059 323.597 209.059 322.508C209.059 321.393 208.717 320.608 208.033 320.152C207.349 319.696 206.374 319.468 205.107 319.468H202.903V326.004ZM218.954 339V320H224.274L224.73 323.268H224.882C225.591 321.976 226.427 321.039 227.39 320.456C228.378 319.848 229.341 319.544 230.278 319.544C230.861 319.544 231.329 319.582 231.684 319.658C232.064 319.709 232.381 319.797 232.634 319.924L231.57 325.548C231.241 325.472 230.911 325.409 230.582 325.358C230.253 325.282 229.873 325.244 229.442 325.244C228.758 325.244 228.036 325.485 227.276 325.966C226.541 326.422 225.946 327.245 225.49 328.436V339H218.954ZM242.902 339.456C241.28 339.456 239.748 339.063 238.304 338.278C236.885 337.493 235.72 336.365 234.808 334.896C233.921 333.401 233.478 331.603 233.478 329.5C233.478 327.397 233.921 325.611 234.808 324.142C235.72 322.647 236.885 321.507 238.304 320.722C239.748 319.937 241.28 319.544 242.902 319.544C244.523 319.544 246.043 319.937 247.462 320.722C248.906 321.507 250.071 322.647 250.958 324.142C251.87 325.611 252.326 327.397 252.326 329.5C252.326 331.603 251.87 333.401 250.958 334.896C250.071 336.365 248.906 337.493 247.462 338.278C246.043 339.063 244.523 339.456 242.902 339.456ZM242.902 334.212C243.89 334.212 244.586 333.794 244.992 332.958C245.422 332.097 245.638 330.944 245.638 329.5C245.638 328.056 245.422 326.916 244.992 326.08C244.586 325.219 243.89 324.788 242.902 324.788C241.914 324.788 241.204 325.219 240.774 326.08C240.368 326.916 240.166 328.056 240.166 329.5C240.166 330.944 240.368 332.097 240.774 332.958C241.204 333.794 241.914 334.212 242.902 334.212ZM262.645 346.828C261.201 346.828 259.871 346.663 258.655 346.334C257.439 346.03 256.464 345.536 255.729 344.852C255.02 344.168 254.665 343.256 254.665 342.116C254.665 340.621 255.552 339.405 257.325 338.468V338.316C256.844 337.961 256.426 337.531 256.071 337.024C255.742 336.492 255.577 335.833 255.577 335.048C255.577 334.389 255.767 333.743 256.147 333.11C256.553 332.477 257.072 331.932 257.705 331.476V331.324C257.021 330.868 256.413 330.222 255.881 329.386C255.375 328.525 255.121 327.549 255.121 326.46C255.121 324.889 255.501 323.597 256.261 322.584C257.047 321.545 258.06 320.785 259.301 320.304C260.543 319.797 261.86 319.544 263.253 319.544C264.368 319.544 265.381 319.696 266.293 320H273.361V324.712H270.625C270.701 324.94 270.765 325.231 270.815 325.586C270.891 325.941 270.929 326.308 270.929 326.688C270.929 328.183 270.587 329.399 269.903 330.336C269.219 331.248 268.295 331.919 267.129 332.35C265.964 332.781 264.672 332.996 263.253 332.996C262.62 332.996 261.911 332.907 261.125 332.73C260.821 333.009 260.669 333.376 260.669 333.832C260.669 334.237 260.872 334.529 261.277 334.706C261.708 334.883 262.392 334.972 263.329 334.972H266.179C268.561 334.972 270.397 335.365 271.689 336.15C273.007 336.91 273.665 338.164 273.665 339.912C273.665 341.28 273.209 342.483 272.297 343.522C271.411 344.561 270.144 345.371 268.497 345.954C266.851 346.537 264.9 346.828 262.645 346.828ZM263.253 329.12C263.861 329.12 264.355 328.905 264.735 328.474C265.115 328.043 265.305 327.372 265.305 326.46C265.305 325.573 265.115 324.927 264.735 324.522C264.355 324.091 263.861 323.876 263.253 323.876C262.645 323.876 262.151 324.091 261.771 324.522C261.391 324.927 261.201 325.573 261.201 326.46C261.201 327.372 261.391 328.043 261.771 328.474C262.151 328.905 262.645 329.12 263.253 329.12ZM263.709 342.8C264.773 342.8 265.66 342.635 266.369 342.306C267.079 342.002 267.433 341.584 267.433 341.052C267.433 340.545 267.205 340.229 266.749 340.102C266.319 339.975 265.698 339.912 264.887 339.912H263.405C262.645 339.912 262.063 339.887 261.657 339.836C261.277 339.811 260.948 339.76 260.669 339.684C260.213 340.14 259.985 340.596 259.985 341.052C259.985 341.66 260.327 342.103 261.011 342.382C261.721 342.661 262.62 342.8 263.709 342.8ZM276.474 339V320H281.794L282.25 323.268H282.402C283.111 321.976 283.947 321.039 284.91 320.456C285.898 319.848 286.86 319.544 287.798 319.544C288.38 319.544 288.849 319.582 289.204 319.658C289.584 319.709 289.9 319.797 290.154 319.924L289.09 325.548C288.76 325.472 288.431 325.409 288.102 325.358C287.772 325.282 287.392 325.244 286.962 325.244C286.278 325.244 285.556 325.485 284.796 325.966C284.061 326.422 283.466 327.245 283.01 328.436V339H276.474ZM300.801 339.456C298.952 339.456 297.28 339.063 295.785 338.278C294.316 337.493 293.151 336.365 292.289 334.896C291.428 333.401 290.997 331.603 290.997 329.5C290.997 327.448 291.428 325.687 292.289 324.218C293.176 322.723 294.316 321.571 295.709 320.76C297.103 319.949 298.572 319.544 300.117 319.544C301.992 319.544 303.537 319.962 304.753 320.798C305.995 321.609 306.907 322.711 307.489 324.104C308.097 325.497 308.401 327.043 308.401 328.74C308.401 329.297 308.363 329.842 308.287 330.374C308.237 330.881 308.186 331.248 308.135 331.476H297.305C297.609 332.616 298.154 333.414 298.939 333.87C299.725 334.301 300.649 334.516 301.713 334.516C302.929 334.516 304.221 334.136 305.589 333.376L307.717 337.252C306.704 337.961 305.564 338.506 304.297 338.886C303.031 339.266 301.865 339.456 300.801 339.456ZM297.229 327.22H302.853C302.853 326.485 302.663 325.852 302.283 325.32C301.929 324.763 301.257 324.484 300.269 324.484C299.56 324.484 298.927 324.699 298.369 325.13C297.812 325.561 297.432 326.257 297.229 327.22ZM317.839 339.456C316.623 339.456 315.331 339.215 313.963 338.734C312.621 338.227 311.455 337.581 310.467 336.796L313.355 332.768C315.078 334.035 316.623 334.668 317.991 334.668C318.675 334.668 319.157 334.579 319.435 334.402C319.739 334.199 319.891 333.908 319.891 333.528C319.891 333.021 319.524 332.629 318.789 332.35C318.055 332.046 317.206 331.704 316.243 331.324C315.509 331.02 314.774 330.64 314.039 330.184C313.33 329.703 312.735 329.095 312.253 328.36C311.772 327.625 311.531 326.739 311.531 325.7C311.531 323.825 312.228 322.331 313.621 321.216C315.015 320.101 316.826 319.544 319.055 319.544C320.626 319.544 321.969 319.81 323.083 320.342C324.223 320.849 325.211 321.419 326.047 322.052L323.159 325.928C322.475 325.421 321.804 325.029 321.145 324.75C320.487 324.471 319.866 324.332 319.283 324.332C318.169 324.332 317.611 324.687 317.611 325.396C317.611 325.877 317.953 326.257 318.637 326.536C319.347 326.789 320.17 327.093 321.107 327.448C321.867 327.727 322.615 328.094 323.349 328.55C324.109 329.006 324.73 329.601 325.211 330.336C325.718 331.071 325.971 332.008 325.971 333.148C325.971 334.921 325.275 336.416 323.881 337.632C322.513 338.848 320.499 339.456 317.839 339.456ZM335.021 339.456C333.805 339.456 332.513 339.215 331.145 338.734C329.802 338.227 328.637 337.581 327.649 336.796L330.537 332.768C332.26 334.035 333.805 334.668 335.173 334.668C335.857 334.668 336.338 334.579 336.617 334.402C336.921 334.199 337.073 333.908 337.073 333.528C337.073 333.021 336.706 332.629 335.971 332.35C335.236 332.046 334.388 331.704 333.425 331.324C332.69 331.02 331.956 330.64 331.221 330.184C330.512 329.703 329.916 329.095 329.435 328.36C328.954 327.625 328.713 326.739 328.713 325.7C328.713 323.825 329.41 322.331 330.803 321.216C332.196 320.101 334.008 319.544 336.237 319.544C337.808 319.544 339.15 319.81 340.265 320.342C341.405 320.849 342.393 321.419 343.229 322.052L340.341 325.928C339.657 325.421 338.986 325.029 338.327 324.75C337.668 324.471 337.048 324.332 336.465 324.332C335.35 324.332 334.793 324.687 334.793 325.396C334.793 325.877 335.135 326.257 335.819 326.536C336.528 326.789 337.352 327.093 338.289 327.448C339.049 327.727 339.796 328.094 340.531 328.55C341.291 329.006 341.912 329.601 342.393 330.336C342.9 331.071 343.153 332.008 343.153 333.148C343.153 334.921 342.456 336.416 341.063 337.632C339.695 338.848 337.681 339.456 335.021 339.456ZM358.898 339.456C357.707 339.456 356.681 339.19 355.82 338.658C354.984 338.101 354.338 337.379 353.882 336.492C353.426 335.605 353.198 334.643 353.198 333.604C353.198 331.628 354.009 330.083 355.63 328.968C357.251 327.828 359.886 327.068 363.534 326.688C363.382 325.371 362.495 324.712 360.874 324.712C360.19 324.712 359.468 324.851 358.708 325.13C357.948 325.383 357.074 325.776 356.086 326.308L353.806 322.052C355.149 321.241 356.504 320.621 357.872 320.19C359.265 319.759 360.697 319.544 362.166 319.544C364.649 319.544 366.587 320.253 367.98 321.672C369.373 323.065 370.07 325.32 370.07 328.436V339H364.75L364.294 337.176H364.142C363.382 337.86 362.571 338.417 361.71 338.848C360.874 339.253 359.937 339.456 358.898 339.456ZM361.178 334.44C361.71 334.44 362.153 334.326 362.508 334.098C362.863 333.845 363.205 333.528 363.534 333.148V330.564C361.989 330.792 360.912 331.134 360.304 331.59C359.721 332.046 359.43 332.54 359.43 333.072C359.43 333.984 360.013 334.44 361.178 334.44ZM374.331 339V320H379.651L380.107 322.28H380.259C381.019 321.545 381.88 320.912 382.843 320.38C383.831 319.823 384.971 319.544 386.263 319.544C388.366 319.544 389.873 320.253 390.785 321.672C391.722 323.065 392.191 324.94 392.191 327.296V339H385.655V328.132C385.655 326.916 385.503 326.105 385.199 325.7C384.895 325.295 384.414 325.092 383.755 325.092C383.147 325.092 382.64 325.219 382.235 325.472C381.83 325.725 381.374 326.08 380.867 326.536V339H374.331ZM403.364 339.456C401.008 339.456 399.121 338.569 397.702 336.796C396.309 334.997 395.612 332.565 395.612 329.5C395.612 327.423 395.979 325.649 396.714 324.18C397.474 322.685 398.449 321.545 399.64 320.76C400.831 319.949 402.072 319.544 403.364 319.544C404.403 319.544 405.251 319.721 405.91 320.076C406.594 320.405 407.215 320.861 407.772 321.444L407.544 318.708V312.552H414.08V339H408.76L408.304 337.252H408.152C407.519 337.885 406.771 338.417 405.91 338.848C405.049 339.253 404.2 339.456 403.364 339.456ZM405.112 334.136C405.619 334.136 406.062 334.047 406.442 333.87C406.847 333.667 407.215 333.3 407.544 332.768V325.776C407.164 325.421 406.746 325.181 406.29 325.054C405.834 324.927 405.391 324.864 404.96 324.864C404.276 324.864 403.655 325.206 403.098 325.89C402.566 326.574 402.3 327.752 402.3 329.424C402.3 331.121 402.553 332.337 403.06 333.072C403.567 333.781 404.251 334.136 405.112 334.136ZM433.015 326.992L432.597 328.702H437.157L436.739 326.992C436.435 325.801 436.131 324.509 435.827 323.116C435.523 321.723 435.219 320.405 434.915 319.164H434.763C434.509 320.405 434.231 321.723 433.927 323.116C433.623 324.509 433.319 325.801 433.015 326.992ZM423.515 339L431.039 314.3H438.943L446.467 339H439.551L438.335 333.756H431.419L430.203 339H423.515ZM448.822 339V314.3H455.358V339H448.822ZM468.453 339V314.3H477.801C479.574 314.3 481.208 314.541 482.703 315.022C484.197 315.478 485.401 316.289 486.313 317.454C487.225 318.619 487.681 320.228 487.681 322.28C487.681 324.053 487.313 325.523 486.579 326.688C485.844 327.853 484.881 328.765 483.691 329.424L489.049 339H481.753L477.497 330.716H474.989V339H468.453ZM474.989 325.548H477.345C479.979 325.548 481.297 324.459 481.297 322.28C481.297 321.216 480.955 320.481 480.271 320.076C479.612 319.671 478.637 319.468 477.345 319.468H474.989V325.548ZM500.301 339.456C498.452 339.456 496.78 339.063 495.285 338.278C493.816 337.493 492.651 336.365 491.789 334.896C490.928 333.401 490.497 331.603 490.497 329.5C490.497 327.448 490.928 325.687 491.789 324.218C492.676 322.723 493.816 321.571 495.209 320.76C496.603 319.949 498.072 319.544 499.617 319.544C501.492 319.544 503.037 319.962 504.253 320.798C505.495 321.609 506.407 322.711 506.989 324.104C507.597 325.497 507.901 327.043 507.901 328.74C507.901 329.297 507.863 329.842 507.787 330.374C507.737 330.881 507.686 331.248 507.635 331.476H496.805C497.109 332.616 497.654 333.414 498.439 333.87C499.225 334.301 500.149 334.516 501.213 334.516C502.429 334.516 503.721 334.136 505.089 333.376L507.217 337.252C506.204 337.961 505.064 338.506 503.797 338.886C502.531 339.266 501.365 339.456 500.301 339.456ZM496.729 327.22H502.353C502.353 326.485 502.163 325.852 501.783 325.32C501.429 324.763 500.757 324.484 499.769 324.484C499.06 324.484 498.427 324.699 497.869 325.13C497.312 325.561 496.932 326.257 496.729 327.22ZM517.339 339.456C516.123 339.456 514.831 339.215 513.463 338.734C512.121 338.227 510.955 337.581 509.967 336.796L512.855 332.768C514.578 334.035 516.123 334.668 517.491 334.668C518.175 334.668 518.657 334.579 518.935 334.402C519.239 334.199 519.391 333.908 519.391 333.528C519.391 333.021 519.024 332.629 518.289 332.35C517.555 332.046 516.706 331.704 515.743 331.324C515.009 331.02 514.274 330.64 513.539 330.184C512.83 329.703 512.235 329.095 511.753 328.36C511.272 327.625 511.031 326.739 511.031 325.7C511.031 323.825 511.728 322.331 513.121 321.216C514.515 320.101 516.326 319.544 518.555 319.544C520.126 319.544 521.469 319.81 522.583 320.342C523.723 320.849 524.711 321.419 525.547 322.052L522.659 325.928C521.975 325.421 521.304 325.029 520.645 324.75C519.987 324.471 519.366 324.332 518.783 324.332C517.669 324.332 517.111 324.687 517.111 325.396C517.111 325.877 517.453 326.257 518.137 326.536C518.847 326.789 519.67 327.093 520.607 327.448C521.367 327.727 522.115 328.094 522.849 328.55C523.609 329.006 524.23 329.601 524.711 330.336C525.218 331.071 525.471 332.008 525.471 333.148C525.471 334.921 524.775 336.416 523.381 337.632C522.013 338.848 519.999 339.456 517.339 339.456ZM537.485 339.456C535.636 339.456 533.964 339.063 532.469 338.278C531 337.493 529.834 336.365 528.973 334.896C528.112 333.401 527.681 331.603 527.681 329.5C527.681 327.448 528.112 325.687 528.973 324.218C529.86 322.723 531 321.571 532.393 320.76C533.786 319.949 535.256 319.544 536.801 319.544C538.676 319.544 540.221 319.962 541.437 320.798C542.678 321.609 543.59 322.711 544.173 324.104C544.781 325.497 545.085 327.043 545.085 328.74C545.085 329.297 545.047 329.842 544.971 330.374C544.92 330.881 544.87 331.248 544.819 331.476H533.989C534.293 332.616 534.838 333.414 535.623 333.87C536.408 334.301 537.333 334.516 538.397 334.516C539.613 334.516 540.905 334.136 542.273 333.376L544.401 337.252C543.388 337.961 542.248 338.506 540.981 338.886C539.714 339.266 538.549 339.456 537.485 339.456ZM533.913 327.22H539.537C539.537 326.485 539.347 325.852 538.967 325.32C538.612 324.763 537.941 324.484 536.953 324.484C536.244 324.484 535.61 324.699 535.053 325.13C534.496 325.561 534.116 326.257 533.913 327.22ZM553.24 339.456C552.049 339.456 551.023 339.19 550.162 338.658C549.326 338.101 548.68 337.379 548.224 336.492C547.768 335.605 547.54 334.643 547.54 333.604C547.54 331.628 548.35 330.083 549.972 328.968C551.593 327.828 554.228 327.068 557.876 326.688C557.724 325.371 556.837 324.712 555.216 324.712C554.532 324.712 553.81 324.851 553.05 325.13C552.29 325.383 551.416 325.776 550.428 326.308L548.148 322.052C549.49 321.241 550.846 320.621 552.214 320.19C553.607 319.759 555.038 319.544 556.508 319.544C558.99 319.544 560.928 320.253 562.322 321.672C563.715 323.065 564.412 325.32 564.412 328.436V339H559.092L558.636 337.176H558.484C557.724 337.86 556.913 338.417 556.052 338.848C555.216 339.253 554.278 339.456 553.24 339.456ZM555.52 334.44C556.052 334.44 556.495 334.326 556.85 334.098C557.204 333.845 557.546 333.528 557.876 333.148V330.564C556.33 330.792 555.254 331.134 554.646 331.59C554.063 332.046 553.772 332.54 553.772 333.072C553.772 333.984 554.354 334.44 555.52 334.44ZM568.673 339V320H573.993L574.449 323.268H574.601C575.31 321.976 576.146 321.039 577.109 320.456C578.097 319.848 579.059 319.544 579.997 319.544C580.579 319.544 581.048 319.582 581.403 319.658C581.783 319.709 582.099 319.797 582.353 319.924L581.289 325.548C580.959 325.472 580.63 325.409 580.301 325.358C579.971 325.282 579.591 325.244 579.161 325.244C578.477 325.244 577.755 325.485 576.995 325.966C576.26 326.422 575.665 327.245 575.209 328.436V339H568.673ZM592.772 339.456C590.974 339.456 589.352 339.063 587.908 338.278C586.464 337.493 585.312 336.365 584.45 334.896C583.614 333.401 583.196 331.603 583.196 329.5C583.196 327.397 583.665 325.611 584.602 324.142C585.565 322.647 586.819 321.507 588.364 320.722C589.91 319.937 591.582 319.544 593.38 319.544C594.52 319.544 595.546 319.721 596.458 320.076C597.396 320.431 598.219 320.912 598.928 321.52L595.888 325.7C595.483 325.345 595.116 325.105 594.786 324.978C594.457 324.851 594.115 324.788 593.76 324.788C592.544 324.788 591.594 325.219 590.91 326.08C590.226 326.916 589.884 328.056 589.884 329.5C589.884 330.944 590.239 332.097 590.948 332.958C591.658 333.794 592.519 334.212 593.532 334.212C594.064 334.212 594.584 334.098 595.09 333.87C595.622 333.617 596.116 333.325 596.572 332.996L599.08 337.252C598.143 338.088 597.104 338.671 595.964 339C594.824 339.304 593.76 339.456 592.772 339.456ZM602.108 339V312.552H608.644V318.708L608.34 321.976C608.999 321.393 609.784 320.849 610.696 320.342C611.634 319.81 612.748 319.544 614.04 319.544C616.143 319.544 617.65 320.253 618.562 321.672C619.5 323.065 619.968 324.94 619.968 327.296V339H613.432V328.132C613.432 326.916 613.28 326.105 612.976 325.7C612.672 325.295 612.191 325.092 611.532 325.092C610.924 325.092 610.418 325.219 610.012 325.472C609.607 325.725 609.151 326.08 608.644 326.536V339H602.108ZM643.765 339.456C641.46 339.456 639.357 339 637.457 338.088C635.582 337.151 634.088 335.745 632.973 333.87C631.858 331.995 631.301 329.652 631.301 326.84C631.301 324.763 631.63 322.926 632.289 321.33C632.948 319.709 633.847 318.341 634.987 317.226C636.127 316.111 637.432 315.275 638.901 314.718C640.396 314.135 641.966 313.844 643.613 313.844C645.437 313.844 647.02 314.173 648.363 314.832C649.706 315.465 650.808 316.225 651.669 317.112L648.249 321.292C647.641 320.76 646.995 320.329 646.311 320C645.652 319.645 644.829 319.468 643.841 319.468C642.169 319.468 640.776 320.101 639.661 321.368C638.546 322.609 637.989 324.357 637.989 326.612C637.989 328.917 638.508 330.703 639.547 331.97C640.611 333.211 642.245 333.832 644.449 333.832C644.804 333.832 645.146 333.794 645.475 333.718C645.83 333.642 646.121 333.528 646.349 333.376V329.956H642.701V324.636H652.125V336.416C651.264 337.252 650.086 337.974 648.591 338.582C647.122 339.165 645.513 339.456 643.765 339.456ZM656.399 339V320H661.719L662.175 323.268H662.327C663.037 321.976 663.873 321.039 664.835 320.456C665.823 319.848 666.786 319.544 667.723 319.544C668.306 319.544 668.775 319.582 669.129 319.658C669.509 319.709 669.826 319.797 670.079 319.924L669.015 325.548C668.686 325.472 668.357 325.409 668.027 325.358C667.698 325.282 667.318 325.244 666.887 325.244C666.203 325.244 665.481 325.485 664.721 325.966C663.987 326.422 663.391 327.245 662.935 328.436V339H656.399ZM680.347 339.456C678.726 339.456 677.193 339.063 675.749 338.278C674.33 337.493 673.165 336.365 672.253 334.896C671.366 333.401 670.923 331.603 670.923 329.5C670.923 327.397 671.366 325.611 672.253 324.142C673.165 322.647 674.33 321.507 675.749 320.722C677.193 319.937 678.726 319.544 680.347 319.544C681.968 319.544 683.488 319.937 684.907 320.722C686.351 321.507 687.516 322.647 688.403 324.142C689.315 325.611 689.771 327.397 689.771 329.5C689.771 331.603 689.315 333.401 688.403 334.896C687.516 336.365 686.351 337.493 684.907 338.278C683.488 339.063 681.968 339.456 680.347 339.456ZM680.347 334.212C681.335 334.212 682.032 333.794 682.437 332.958C682.868 332.097 683.083 330.944 683.083 329.5C683.083 328.056 682.868 326.916 682.437 326.08C682.032 325.219 681.335 324.788 680.347 324.788C679.359 324.788 678.65 325.219 678.219 326.08C677.814 326.916 677.611 328.056 677.611 329.5C677.611 330.944 677.814 332.097 678.219 332.958C678.65 333.794 679.359 334.212 680.347 334.212ZM698.951 339.456C696.873 339.456 695.366 338.759 694.429 337.366C693.491 335.947 693.023 334.06 693.023 331.704V320H699.559V330.868C699.559 332.084 699.711 332.895 700.015 333.3C700.344 333.705 700.825 333.908 701.459 333.908C702.067 333.908 702.573 333.781 702.979 333.528C703.384 333.275 703.789 332.844 704.195 332.236V320H710.731V339H705.411L704.955 336.492H704.803C704.043 337.404 703.194 338.126 702.257 338.658C701.345 339.19 700.243 339.456 698.951 339.456ZM715.143 345.688V320H720.463L720.919 321.748H721.071C721.781 321.089 722.579 320.557 723.465 320.152C724.377 319.747 725.302 319.544 726.239 319.544C727.734 319.544 729.026 319.949 730.115 320.76C731.23 321.545 732.091 322.66 732.699 324.104C733.307 325.548 733.611 327.245 733.611 329.196C733.611 331.375 733.231 333.237 732.471 334.782C731.711 336.302 730.723 337.467 729.507 338.278C728.317 339.063 727.05 339.456 725.707 339.456C724.137 339.456 722.718 338.823 721.451 337.556L721.679 340.444V345.688H715.143ZM724.111 334.136C724.871 334.136 725.53 333.781 726.087 333.072C726.645 332.363 726.923 331.096 726.923 329.272C726.923 327.701 726.695 326.574 726.239 325.89C725.809 325.206 725.15 324.864 724.263 324.864C723.782 324.864 723.339 324.965 722.933 325.168C722.528 325.371 722.11 325.725 721.679 326.232V333.224C722.059 333.553 722.452 333.794 722.857 333.946C723.288 334.073 723.706 334.136 724.111 334.136Z" fill="#004191"/>
<line y1="281.5" x2="758" y2="281.5" stroke="#004191" stroke-width="5"/>
</svg>
